<?xml version="1.0" encoding="utf-8"?>
<!-- Generator: Adobe Illustrator 16.0.3, SVG Export Plug-In . SVG Version: 6.00 Build 0)  -->
<!DOCTYPE svg PUBLIC "-//W3C//DTD SVG 1.1//EN" "http://www.w3.org/Graphics/SVG/1.1/DTD/svg11.dtd">
<svg version="1.1" id="Livello_1" xmlns="http://www.w3.org/2000/svg" xmlns:xlink="http://www.w3.org/1999/xlink" x="0px" y="0px"
	 width="595.28px" height="841.89px" viewBox="0 0 595.28 841.89" enable-background="new 0 0 595.28 841.89" xml:space="preserve">
<g>
	<path fill-rule="evenodd" clip-rule="evenodd" fill="#FFFFFF" d="M459.777,415.378c1.438,3.361,2.263,7.159,2.456,11.198
		l0.032,0.291v2.795l-0.032,0.34c-0.355,7.643-3.224,14.139-7.828,18.889c3.627,4.734,5.824,10.811,6.1,17.596
		c0.38,8.436-2.165,15.787-6.803,21.217c4.137,4.879,6.641,11.359,6.996,18.695c0.259,6.172-1.018,11.762-3.587,16.48h3.773v29.553
		H109.002v-29.553h0.122c-0.021-0.387-0.021-0.809-0.021-1.18v-28.131c0-2.877,0.691-5.445,1.951-7.611
		c-1.773-2.924-2.828-6.365-2.828-10.309c0-2.715,0.622-5.203,1.68-7.434c-0.804-2.213-1.264-4.637-1.264-7.287
		c0-6.025,2.084-10.971,5.47-14.703c-3.692-4.928-5.756-11.246-5.756-18.502c0-4.459,0.905-8.644,2.557-12.344h-1.858v-29.569
		h62.047c-37.244-21.07-62.403-61.025-62.403-106.834c0-67.735,54.91-122.658,122.645-122.658c0.424,0,0.86,0,1.288,0h13.8V258.68
		l-14.405-0.606c-0.206-0.024-0.433-0.024-0.683-0.024c-11.553,0-20.885,9.372-20.885,20.926c0,11.536,9.332,20.884,20.885,20.884
		c0.227,0,0.424,0,0.658,0l1.847-0.08l1.47-0.251c9.809-1.931,16.934-10.56,16.934-20.553v-0.219l0.009-0.178
		c0.59-19.866,8.927-44.548,18.82-61.36c25.941-44.145,70.805-61.531,120.54-61.531h69.529v230.122h0.791v29.569H459.777z"/>
	<rect x="122.842" y="399.721" fill-rule="evenodd" clip-rule="evenodd" fill="#E6007E" width="325.188" height="1.874"/>
	<rect x="122.842" y="399.721" fill="#F39200" stroke="#F3912D" stroke-width="0.0288" width="325.188" height="1.874"/>
	<path fill-rule="evenodd" clip-rule="evenodd" fill="#134395" d="M141.113,418.933c-0.856-1.002-1.637-1.745-2.965-1.745
		c-3.002,0-4.112,4.008-4.112,7.837c0,3.895,0.706,7.336,2.783,9.549c1.535,1.6,3.385,2.213,4.992,2.213
		c1.915,0,3.018-0.758,3.967-1.34c1.265-0.84,1.523-0.971,2.291-0.971c1.507,0,2.795,0.922,2.795,2.408
		c0,2.344-3.563,7.029-11.985,7.029c-12.502,0-16.695-8.338-16.695-16.158c0-10.907,8.722-15.917,16.655-15.917
		c8.531,0,12.046,4.233,12.046,6.755c0,2.035-1.781,3.587-4.723,3.587c-1.793,0-2.888-0.598-3.765-1.632
		C141.929,420,141.586,419.547,141.113,418.933"/>
	<path fill-rule="evenodd" clip-rule="evenodd" fill="#134395" d="M195.498,430.471v6.398h9.517c0.978,0,1.527,0.178,1.527,1.211
		v3.879c0,0.904-0.355,1.164-1.527,1.164h-18.985c-1.249,0-1.693-0.309-1.693-1.311v-27.888c0.061-0.985,0.457-1.309,1.733-1.309
		h18.881c0.966,0,1.672,0,1.592,1.082v3.862c0,1.002-0.55,1.131-1.592,1.131h-9.452v5.833h7.711c1.002,0,1.741,0.113,1.741,1.164
		v3.652c0,1.033-0.573,1.131-1.616,1.131H195.498z"/>
	<path fill-rule="evenodd" clip-rule="evenodd" fill="#134395" d="M260.725,426.674v-13.122c0-0.759,0.464-0.937,1.409-0.937h5.413
		c0.962,0,1.575,0.08,1.575,1.082v28.261c0,0.855-0.274,1.164-1.337,1.164h-4.5c-1.494,0-1.713-0.244-2.468-1.164l-11.222-15.285
		v15.221c0,0.84-0.198,1.229-1.221,1.229h-5.506c-1.029,0-1.555-0.178-1.555-1.1v-28.229c0-0.694,0.157-1.26,1.373-1.179h6.108
		c1.329,0,1.813,0.258,2.46,1.179L260.725,426.674z"/>
	<path fill-rule="evenodd" clip-rule="evenodd" fill="#134395" d="M318.894,418.659v23.107c0,0.953-0.355,1.357-1.438,1.357h-8.225
		c-1.317,0-1.641-0.309-1.641-1.439v-23.025h-5.525c-1.276,0-1.527-0.308-1.527-1.244v-3.685c0-0.985,0.622-1.195,1.527-1.195
		h22.395c0.93,0,1.471,0.21,1.471,1.099v3.813c0,0.484,0,1.212-1.316,1.212H318.894z"/>
	<path fill-rule="evenodd" clip-rule="evenodd" fill="#134395" d="M368.257,427.578c5.188,0.227,5.188-3.459,5.188-4.686
		c0-4.202-1.406-5.624-5.188-5.446V427.578z M357.334,414.425c0.024-0.921,0.024-1.325,1.083-1.584
		c1.39-0.388,5.801-0.679,9.404-0.679c4.145,0,12.651,0.065,15.673,5.494c0.744,1.405,0.954,2.747,0.954,3.829
		c0,5.188-4.702,7.303-6.189,8.032l8.039,11.779c0.429,0.516,0.493,0.727,0.493,1.002c0,0.646-0.614,0.824-1.309,0.824h-8.483
		c-1.406,0-1.777-0.178-2.327-1.164l-5.606-9.938c-0.113-0.193-0.267-0.436-0.485-0.436c-0.274,0-0.274,0.111-0.323,0.693v9.646
		c0,1.066-0.598,1.197-1.623,1.197h-7.829c-1.228,0-1.471-0.34-1.471-1.164V414.425z"/>
	<path fill-rule="evenodd" clip-rule="evenodd" fill="#134395" d="M435.88,420.162c-0.323-0.711-1.034-2.359-3.297-2.359
		c-2.003,0-4.37,1.099-4.37,9.565c0,5.51,0.961,10.051,4.5,10.051c2.536,0,3.313-2.439,3.466-3.021
		c0.759-2.344,0.848-4.734,0.808-7.174C436.938,424.848,436.769,422.408,435.88,420.162 M432.47,443.914
		c-9.646,0-15.729-6.334-15.729-16.158c0-10.26,6.892-15.981,16.053-15.981c8.58,0,15.124,5.397,15.642,15.448v2.117
		C447.917,439.566,440.25,443.914,432.47,443.914z"/>
	<path fill-rule="evenodd" clip-rule="evenodd" fill="#134395" d="M129.418,469.848c-4.153-2.068-6.932-4.879-6.932-8.92
		c0-6.43,5.728-9.193,12.47-9.193c10.054,0,12.413,4.961,12.413,6.787c0,2.068-1.967,3.521-4.589,3.521
		c-2.662,0-3.571-1.244-4.577-2.715c-0.804-1.131-1.838-2.488-3.522-2.488c-1.276,0-2.092,0.84-2.092,2.15
		c0,1.891,1.188,2.471,6.249,4.848c4.734,2.164,9.654,4.41,9.654,10.486c0,7.965-8.357,9.469-13.375,9.469
		c-9.428,0-13.031-4.768-13.031-8.145c0-2.746,2.812-3.766,4.617-3.766c3.248,0,4.576,2.166,5.647,3.83
		c0.67,1.26,1.685,2.424,3.396,2.424c1.111,0,2.194-0.662,2.194-1.971c0-1.1-0.444-2.117-2.55-3.377
		c-0.436-0.242-2.532-1.195-2.984-1.455L129.418,469.848z"/>
	<path fill-rule="evenodd" clip-rule="evenodd" fill="#134395" d="M177.941,466.6c0.283,0,0.809,0.033,1.14,0.033
		c4.164,0,4.164-3.572,4.164-4.492c0-1.277-0.129-4.734-4.427-4.734c-0.319,0-0.594,0.049-0.877,0.049V466.6z M166.72,454.643
		c0-0.469,0-1.115,0.55-1.535c1.106-0.84,8.604-0.984,10.522-0.984c7.708,0,16.736,1.18,16.736,9.855
		c0,7.207-6.371,9.938-13.496,9.938c-0.938,0-1.858-0.033-3.091-0.08v10.098c0,0.971-0.505,1.131-1.543,1.131h-8.212
		c-1.18,0-1.467-0.387-1.467-1.291V454.643z"/>
	<path fill-rule="evenodd" clip-rule="evenodd" fill="#134395" d="M229.891,460.008c-0.299-0.662-1.026-2.328-3.316-2.328
		c-2,0-4.371,1.133-4.371,9.6c0,5.51,1.002,10.066,4.536,10.066c2.529,0,3.301-2.488,3.466-3.021
		c0.739-2.344,0.894-4.752,0.816-7.176C230.944,464.758,230.795,462.318,229.891,460.008 M226.505,483.793
		c-9.675,0-15.742-6.318-15.742-16.143c0-10.244,6.872-15.98,16.046-15.98c8.62,0,15.156,5.412,15.608,15.479
		C242.962,478.881,234.754,483.793,226.505,483.793z"/>
	<path fill-rule="evenodd" clip-rule="evenodd" fill="#134395" d="M271.78,467.473c5.224,0.275,5.224-3.441,5.224-4.686
		c0-4.201-1.454-5.592-5.224-5.43V467.473z M260.817,454.369c0.049-0.922,0.049-1.375,1.131-1.648
		c1.365-0.34,5.793-0.646,9.42-0.646c4.112,0,12.624,0.049,15.638,5.477c0.796,1.406,0.917,2.73,0.917,3.83
		c0,5.188-4.658,7.369-6.152,8.063l8.087,11.764c0.384,0.549,0.485,0.76,0.485,1.051c0,0.582-0.679,0.807-1.35,0.807h-8.471
		c-1.422,0-1.777-0.225-2.307-1.18l-5.64-9.969c-0.137-0.178-0.278-0.42-0.48-0.42c-0.259,0-0.259,0.098-0.315,0.678v9.664
		c0,1.066-0.573,1.227-1.596,1.227h-7.856c-1.257,0-1.511-0.387-1.511-1.18V454.369z"/>
	<path fill-rule="evenodd" clip-rule="evenodd" fill="#134395" d="M320.857,458.553v23.139c0,0.922-0.355,1.373-1.454,1.373h-8.185
		c-1.333,0-1.64-0.322-1.64-1.469v-23.043h-5.511c-1.292,0-1.567-0.291-1.567-1.229v-3.699c0-0.986,0.631-1.146,1.567-1.146h22.363
		c0.953,0,1.486,0.16,1.486,1.082v3.797c0,0.453,0,1.195-1.324,1.195H320.857z"/>
	<path fill-rule="evenodd" clip-rule="evenodd" fill="#134395" d="M355.193,481.838c0,1.227-0.961,1.227-1.527,1.227h-8.394
		c-0.824,0-1.479-0.225-1.479-1.291v-28.148c0-0.986,0.484-1.1,1.422-1.1h8.596c1.212-0.047,1.382,0.355,1.382,1.1V481.838z"/>
	<path fill-rule="evenodd" clip-rule="evenodd" fill="#134395" d="M387.114,468.15l5.065-14.59c0.315-0.857,0.63-1.035,1.753-1.035
		h5.623c0.679-0.047,1.454,0.113,1.454,0.842c0,0.193-0.112,0.402-0.274,0.855l-10.681,27.533c-0.412,1.002-0.59,1.309-1.858,1.309
		h-4.402c-1.123,0-1.414-0.08-1.754-1.018l-10.729-28.051c-0.178-0.469-0.227-0.629-0.227-0.824c0-0.693,0.832-0.646,1.276-0.646
		h8.718c1.284,0,1.592,0.178,1.898,1.197L387.114,468.15z"/>
	<path fill-rule="evenodd" clip-rule="evenodd" fill="#134395" d="M434.183,460.008c-0.339-0.662-1.018-2.328-3.313-2.328
		c-1.995,0-4.362,1.133-4.362,9.6c0,5.51,0.978,10.066,4.54,10.066c2.473,0,3.297-2.488,3.418-3.021
		c0.783-2.344,0.896-4.752,0.808-7.176C435.249,464.758,435.071,462.318,434.183,460.008 M430.766,483.793
		c-9.639,0-15.746-6.318-15.746-16.143c0-10.244,6.899-15.98,16.045-15.98c8.637,0,15.205,5.412,15.657,15.479
		C447.239,478.881,439.079,483.793,430.766,483.793z"/>
	<path fill-rule="evenodd" clip-rule="evenodd" fill="#134395" d="M134.311,521.732c0,1.211-0.957,1.211-1.479,1.211h-8.402
		c-0.86,0-1.499-0.193-1.499-1.244v-28.131c0-1.002,0.484-1.131,1.458-1.131h8.543c1.212-0.049,1.378,0.371,1.378,1.131V521.732z"/>
	<path fill-rule="evenodd" clip-rule="evenodd" fill="#134395" d="M171.761,498.496v23.09c0,0.906-0.299,1.357-1.409,1.357h-8.177
		c-1.333,0-1.647-0.322-1.647-1.438v-23.01h-5.551c-1.248,0-1.535-0.322-1.535-1.275v-3.652c0-1.002,0.65-1.18,1.535-1.18h22.392
		c0.957,0,1.479,0.178,1.479,1.066v3.797c0,0.484,0,1.244-1.329,1.244H171.761z"/>
	<path fill-rule="evenodd" clip-rule="evenodd" fill="#134395" d="M208.896,513.557l-3.033-9.162l-2.856,9.162H208.896z
		 M210.706,518.355h-9.509l-1.054,3.457c-0.275,0.809-0.558,1.131-1.798,1.131h-5.563c-0.711,0-1.276-0.193-1.276-0.775
		c0-0.145,0.371-1.066,0.428-1.131l11.319-27.469c0.452-0.904,0.751-1.131,1.862-1.131h5.207c1.26,0,1.478,0.291,1.861,1.131
		l11.335,27.904c0.049,0.178,0.15,0.373,0.15,0.598c0,0.842-0.926,0.873-1.487,0.873h-8.681c-1.103,0-1.41-0.242-1.701-1.033
		L210.706,518.355z"/>
	<path fill-rule="evenodd" clip-rule="evenodd" fill="#134395" d="M253.942,516.691h8.111c0.751,0,1.381,0,1.381,0.953v4.266
		c0,0.969-0.63,1.033-1.381,1.033h-17.855c-1.014,0-1.397-0.193-1.426-1.131v-28.357c0.028-1.018,0.771-1.018,1.361-1.018h8.325
		c0.877,0,1.414,0.08,1.483,0.969V516.691z"/>
	<path fill-rule="evenodd" clip-rule="evenodd" fill="#134395" d="M295.473,521.732c0,1.211-1.002,1.211-1.535,1.211h-8.41
		c-0.816,0-1.467-0.193-1.467-1.244v-28.131c0-1.002,0.501-1.131,1.41-1.131h8.58c1.22-0.049,1.422,0.371,1.422,1.131V521.732z"/>
	<path fill-rule="evenodd" clip-rule="evenodd" fill="#134395" d="M331.894,513.557l-3.006-9.162l-2.884,9.162H331.894z
		 M333.719,518.355h-9.533l-1.05,3.457c-0.259,0.809-0.533,1.131-1.777,1.131H315.8c-0.703,0-1.293-0.193-1.293-0.775
		c0-0.145,0.404-1.066,0.437-1.131l11.327-27.469c0.436-0.904,0.727-1.131,1.857-1.131h5.195c1.301,0,1.494,0.291,1.891,1.131
		l11.303,27.904c0.057,0.178,0.146,0.373,0.146,0.598c0,0.842-0.889,0.873-1.454,0.873h-8.661c-1.147,0-1.454-0.242-1.729-1.033
		L333.719,518.355z"/>
	<path fill-rule="evenodd" clip-rule="evenodd" fill="#134395" d="M385.239,506.463v-13.088c0-0.793,0.469-0.938,1.342-0.938h5.493
		c0.921,0,1.552,0.08,1.552,1.066v28.277c0,0.84-0.275,1.162-1.342,1.162h-4.523c-1.487,0-1.697-0.242-2.44-1.162l-11.222-15.318
		v15.236c0,0.84-0.202,1.244-1.229,1.244h-5.518c-1.018,0-1.535-0.193-1.535-1.098v-28.277c0-0.631,0.146-1.18,1.357-1.131h6.148
		c1.316,0,1.802,0.227,2.415,1.131L385.239,506.463z"/>
	<path fill-rule="evenodd" clip-rule="evenodd" fill="#134395" d="M434.345,499.951c-0.331-0.711-1.034-2.328-3.297-2.328
		c-2.044,0-4.395,1.1-4.395,9.533c0,5.543,0.97,10.1,4.532,10.1c2.48,0,3.28-2.473,3.458-3.055c0.751-2.326,0.864-4.75,0.815-7.174
		C435.395,504.668,435.249,502.229,434.345,499.951 M430.936,523.719c-9.623,0-15.755-6.35-15.755-16.174
		c0-10.26,6.924-15.947,16.062-15.947c8.604,0,15.141,5.348,15.657,15.43C447.4,518.824,439.216,523.719,430.936,523.719z"/>
	<path fill-rule="evenodd" clip-rule="evenodd" fill="#134395" d="M391.622,169.502c-122.294,0-125.554,109.473-125.554,109.473
		c0,16.949-12.103,31.007-28.119,34.118l-0.085,22.063c28.168-3.216,50.099-27.202,50.099-56.182
		c0-26.282,23.975-83.959,95.176-83.959h40.138h2.812v2.779v189.209h21.216V169.502H391.622z"/>
	<path fill-rule="evenodd" clip-rule="evenodd" fill="#134395" d="M383.139,200.624c-26.338,0-48.887,8.645-65.255,25.021
		c-16.764,16.78-24.326,38.877-24.326,53.331c0,16.635-6.455,32.228-18.227,43.975c-10.195,10.22-23.296,16.416-37.479,17.87
		l-0.013,18.688c41.519-3.313,74.308-38.149,74.308-80.532c0-28.075,25.757-58.348,67.372-58.348h17.209h2.795v2.812v163.565h20.966
		V200.624H383.139z"/>
	<path fill-rule="evenodd" clip-rule="evenodd" fill="#134395" d="M379.52,226.177c-18.355,0-34.829,6.415-46.398,17.977
		c-9.76,9.775-15.326,22.476-15.326,34.821c0,23.073-9.024,44.782-25.344,61.126c-14.789,14.761-34.001,23.522-54.651,24.993
		l-0.072,22.492c57.147-3.297,102.455-51.63,102.455-106.285c0-23.995,25.215-32.445,33.649-32.445l-0.081,138.148h20.182V226.177
		H379.52z"/>
	<path fill-rule="evenodd" clip-rule="evenodd" fill="#134395" d="M191.305,238.951c-10.677,10.673-16.555,24.9-16.555,40.024
		c0,15.14,5.878,29.335,16.555,40.04c10.692,10.672,24.924,16.554,40.04,16.554c0.424,0,0.86-0.04,1.288-0.04v-21.813
		c-0.42,0-0.864,0-1.288,0c-19.18,0-34.74-15.513-34.74-34.74c0-19.196,15.561-34.725,34.74-34.725c0.424,0,0.86,0,1.288,0v-21.91
		h-1.288C216.229,222.34,201.997,228.23,191.305,238.951"/>
	<path fill-rule="evenodd" clip-rule="evenodd" fill="#134395" d="M187.342,322.95c-11.755-11.747-18.251-27.34-18.251-43.975
		c0-34.337,27.946-62.242,62.254-62.242h1.288v-18.582h-1.288c-21.592,0-41.85,8.402-57.132,23.696
		c-15.277,15.237-23.676,35.548-23.676,57.128c0,21.571,8.398,41.865,23.676,57.144c15.282,15.277,35.54,23.68,57.132,23.68
		c0.424,0,0.86-0.057,1.288-0.057v-18.606c-0.428,0-0.864,0.049-1.288,0.049C214.722,341.184,199.113,334.72,187.342,322.95"/>
	<path fill-rule="evenodd" clip-rule="evenodd" fill="#134395" d="M170.267,340.101c-16.353-16.344-25.32-38.053-25.32-61.126
		c0-47.659,38.78-86.423,86.398-86.423h1.288v-22.411c-0.428,0-0.864,0-1.288,0c-60.076,0-108.79,48.717-108.79,108.834
		c0,60.076,48.713,108.772,108.79,108.772c0.424,0,0.86,0,1.288,0v-22.396c-0.428,0-0.864,0-1.288,0
		C208.283,365.352,186.546,356.389,170.267,340.101"/>
	<path fill-rule="evenodd" clip-rule="evenodd" fill="#EC6608" d="M371.845,207.24c0,20.845,16.885,37.754,37.721,37.754
		c20.82,0,37.738-16.909,37.738-37.754c0-20.827-16.918-37.737-37.738-37.737c-0.314,0-0.638,0-0.969,0
		c-0.299,0.024-0.654,0.049-0.994,0.049c-0.291,0.016-0.614,0.057-0.938,0.073c-0.331,0.024-0.63,0.04-0.961,0.064
		c-0.331,0.048-0.654,0.089-0.945,0.137c-0.331,0.016-0.614,0.073-0.938,0.129c-0.299,0.048-0.63,0.064-0.953,0.146
		c-0.274,0.041-0.614,0.129-0.938,0.178c-0.299,0.073-0.598,0.137-0.872,0.21c-0.323,0.064-0.63,0.137-0.938,0.218
		c-0.291,0.064-0.598,0.153-0.889,0.25c-0.299,0.064-0.573,0.162-0.889,0.226c-0.314,0.129-0.598,0.21-0.872,0.315
		c-0.299,0.113-0.582,0.178-0.881,0.332c-0.283,0.073-0.573,0.21-0.849,0.299c-0.307,0.113-0.558,0.21-0.872,0.372
		c-0.267,0.081-0.541,0.218-0.824,0.355c-0.291,0.129-0.565,0.234-0.84,0.388c-0.291,0.146-0.55,0.243-0.841,0.412
		c-0.259,0.105-0.533,0.283-0.775,0.396c-0.291,0.146-0.541,0.331-0.824,0.477c-0.242,0.113-0.533,0.275-0.768,0.453
		c-0.259,0.162-0.509,0.315-0.8,0.452c-0.242,0.178-0.469,0.332-0.719,0.509c-0.267,0.153-0.493,0.372-0.752,0.517
		c-0.242,0.178-0.477,0.372-0.727,0.549c-0.259,0.194-0.509,0.347-0.743,0.565c-0.227,0.178-0.469,0.38-0.679,0.549
		c-0.242,0.178-0.484,0.404-0.703,0.598c-0.234,0.178-0.428,0.396-0.687,0.565c-0.194,0.234-0.42,0.436-0.646,0.654
		c-0.227,0.162-0.42,0.372-0.646,0.614l0,0c-0.226,0.226-0.437,0.428-0.638,0.646c-0.219,0.233-0.429,0.428-0.646,0.687
		c-0.186,0.218-0.38,0.428-0.59,0.646c-0.194,0.258-0.372,0.492-0.574,0.727c-0.169,0.219-0.371,0.461-0.573,0.671
		c-0.193,0.274-0.355,0.533-0.558,0.727c-0.169,0.259-0.348,0.478-0.525,0.768c-0.161,0.227-0.355,0.501-0.509,0.752
		c-0.169,0.234-0.331,0.469-0.524,0.743c-0.146,0.227-0.275,0.492-0.485,0.775c-0.129,0.251-0.274,0.509-0.452,0.768
		c-0.129,0.259-0.274,0.533-0.42,0.783c-0.162,0.275-0.308,0.558-0.42,0.833l0,0c-0.146,0.234-0.308,0.524-0.421,0.808
		c-0.129,0.234-0.274,0.549-0.371,0.808c-0.146,0.308-0.259,0.565-0.404,0.856c-0.113,0.274-0.227,0.574-0.348,0.873
		c-0.089,0.274-0.21,0.533-0.307,0.84c-0.105,0.299-0.234,0.598-0.323,0.856c-0.089,0.267-0.17,0.605-0.267,0.905
		c-0.121,0.274-0.194,0.565-0.274,0.896c-0.098,0.282-0.178,0.598-0.219,0.904c-0.097,0.275-0.178,0.574-0.226,0.905
		c-0.073,0.299-0.153,0.614-0.227,0.913c-0.057,0.291-0.097,0.605-0.178,0.938c-0.057,0.282-0.081,0.613-0.153,0.929
		c-0.049,0.282-0.097,0.59-0.129,0.97c-0.049,0.274-0.073,0.581-0.113,0.896c-0.049,0.323-0.057,0.639-0.057,0.97
		c-0.049,0.331-0.057,0.646-0.073,0.945c-0.032,0.331-0.032,0.63-0.032,0.961C371.845,206.578,371.845,206.925,371.845,207.24"/>
	<path fill-rule="evenodd" clip-rule="evenodd" fill="#EC6608" d="M445.009,194.265c-2.326,12.539-13.314,22.016-26.499,22.016
		c-14.866,0-26.96-12.046-26.96-26.928c0-7.037,2.723-13.436,7.109-18.234c3.466-1.059,7.117-1.616,10.906-1.616
		C425.829,169.502,439.726,179.82,445.009,194.265"/>
	<path fill-rule="evenodd" clip-rule="evenodd" fill="#EC6608" d="M444.944,194.087c-2.262,12.587-13.25,22.129-26.435,22.129
		c-14.842,0-26.855-12.046-26.855-26.863c0-7.069,2.715-13.492,7.183-18.332c3.401-1.002,6.988-1.519,10.729-1.519
		C425.78,169.502,439.612,179.763,444.944,194.087"/>
	<path fill-rule="evenodd" clip-rule="evenodd" fill="#EC6608" d="M444.896,193.934c-2.213,12.595-13.152,22.169-26.386,22.169
		c-14.793,0-26.75-11.989-26.75-26.75c0-7.094,2.747-13.573,7.255-18.332c3.345-1.002,6.875-1.519,10.551-1.519
		C425.708,169.502,439.507,179.642,444.896,193.934"/>
	<path fill-rule="evenodd" clip-rule="evenodd" fill="#EC6608" d="M444.791,193.756c-2.076,12.66-13.048,22.266-26.281,22.266
		c-14.736,0-26.693-11.933-26.693-26.669c0-7.134,2.827-13.605,7.376-18.396c3.288-0.954,6.771-1.455,10.373-1.455
		C425.635,169.502,439.402,179.602,444.791,193.756"/>
	<path fill-rule="evenodd" clip-rule="evenodd" fill="#EC690C" d="M444.742,193.579c-1.995,12.676-12.999,22.363-26.232,22.363
		c-14.664,0-26.597-11.909-26.597-26.589c0-7.134,2.86-13.67,7.433-18.469c3.28-0.881,6.689-1.382,10.22-1.382
		C425.587,169.502,439.272,179.504,444.742,193.579"/>
	<path fill-rule="evenodd" clip-rule="evenodd" fill="#EC690C" d="M444.67,193.425c-1.923,12.732-12.927,22.403-26.16,22.403
		c-14.64,0-26.483-11.853-26.483-26.476c0-7.19,2.844-13.727,7.497-18.469c3.207-0.905,6.576-1.382,10.042-1.382
		C425.506,169.502,439.192,179.408,444.67,193.425"/>
	<path fill-rule="evenodd" clip-rule="evenodd" fill="#EC690C" d="M444.621,193.248c-1.874,12.74-12.846,22.5-26.111,22.5
		c-14.591,0-26.427-11.828-26.427-26.395c0-7.215,2.916-13.799,7.635-18.55c3.135-0.84,6.438-1.301,9.848-1.301
		C425.474,169.502,439.079,179.367,444.621,193.248"/>
	<path fill-rule="evenodd" clip-rule="evenodd" fill="#EC690C" d="M444.54,193.085c-1.793,12.798-12.765,22.565-26.03,22.565
		c-14.534,0-26.33-11.731-26.33-26.298c0-7.247,2.949-13.823,7.684-18.582c3.102-0.816,6.35-1.269,9.702-1.269
		C425.401,169.502,438.966,179.254,444.54,193.085"/>
	<path fill-rule="evenodd" clip-rule="evenodd" fill="#EC6910" d="M444.468,192.916c-1.721,12.813-12.692,22.654-25.958,22.654
		c-14.479,0-26.226-11.747-26.226-26.217c0-7.271,2.974-13.864,7.772-18.646c3.038-0.768,6.237-1.204,9.509-1.204
		C425.328,169.502,438.837,179.173,444.468,192.916"/>
	<path fill-rule="evenodd" clip-rule="evenodd" fill="#EC6910" d="M444.395,192.754c-1.647,12.838-12.619,22.734-25.885,22.734
		c-14.438,0-26.145-11.706-26.145-26.136c0-7.304,3.014-13.937,7.837-18.646c3.021-0.792,6.132-1.204,9.363-1.204
		C425.271,169.502,438.739,179.117,444.395,192.754"/>
	<path fill-rule="evenodd" clip-rule="evenodd" fill="#EC6910" d="M444.354,192.577c-1.584,12.854-12.579,22.84-25.845,22.84
		c-14.365,0-26.031-11.699-26.031-26.063c0-7.368,3.029-13.96,7.934-18.719c2.9-0.735,5.995-1.131,9.153-1.131
		C425.19,169.502,438.643,179.036,444.354,192.577"/>
	<path fill-rule="evenodd" clip-rule="evenodd" fill="#EC6910" d="M444.266,192.439c-1.495,12.87-12.441,22.856-25.756,22.856
		c-14.333,0-25.967-11.594-25.967-25.942c0-7.385,3.087-14.025,8.031-18.784c2.876-0.671,5.89-1.067,8.991-1.067
		C425.167,169.502,438.521,178.939,444.266,192.439"/>
	<path fill-rule="evenodd" clip-rule="evenodd" fill="#ED6B10" d="M444.185,192.261c-1.414,12.895-12.36,22.937-25.675,22.937
		c-14.284,0-25.854-11.577-25.854-25.845c0-7.425,3.103-14.082,8.096-18.8c2.844-0.654,5.769-1.05,8.813-1.05
		C425.086,169.502,438.433,178.858,444.185,192.261"/>
	<path fill-rule="evenodd" clip-rule="evenodd" fill="#ED6B13" d="M444.128,192.1c-1.357,12.918-12.304,23.001-25.618,23.001
		c-14.235,0-25.772-11.521-25.772-25.748c0-7.44,3.15-14.122,8.208-18.84c2.763-0.671,5.663-1.01,8.62-1.01
		C424.989,169.502,438.287,178.793,444.128,192.1"/>
	<path fill-rule="evenodd" clip-rule="evenodd" fill="#ED6B13" d="M444.039,191.922c-1.269,12.975-12.215,23.114-25.529,23.114
		c-14.188,0-25.7-11.513-25.7-25.684c0-7.465,3.208-14.211,8.298-18.881c2.738-0.646,5.558-0.97,8.458-0.97
		C424.924,169.502,438.19,178.721,444.039,191.922"/>
	<path fill-rule="evenodd" clip-rule="evenodd" fill="#ED6B13" d="M444.007,191.769c-1.236,12.991-12.167,23.171-25.497,23.171
		c-14.139,0-25.595-11.416-25.595-25.587c0-7.521,3.224-14.211,8.37-18.938c2.69-0.59,5.445-0.913,8.28-0.913
		C424.892,169.502,438.069,178.64,444.007,191.769"/>
	<path fill-rule="evenodd" clip-rule="evenodd" fill="#ED6E16" d="M443.894,191.591c-1.123,13.031-12.054,23.251-25.384,23.251
		c-14.082,0-25.481-11.399-25.481-25.489c0-7.521,3.239-14.3,8.426-18.961c2.618-0.566,5.332-0.889,8.111-0.889
		C424.795,169.502,437.932,178.576,443.894,191.591"/>
	<path fill-rule="evenodd" clip-rule="evenodd" fill="#ED6E16" d="M443.829,191.414c-1.059,13.071-11.989,23.349-25.319,23.349
		c-14.058,0-25.401-11.384-25.401-25.409c0-7.563,3.28-14.34,8.523-19.002c2.545-0.565,5.195-0.849,7.934-0.849
		C424.746,169.502,437.851,178.487,443.829,191.414"/>
	<path fill-rule="evenodd" clip-rule="evenodd" fill="#ED6E16" d="M443.757,191.244c-0.986,13.104-11.917,23.405-25.247,23.405
		c-13.985,0-25.337-11.319-25.337-25.296c0-7.603,3.361-14.397,8.661-19.042c2.488-0.533,5.09-0.808,7.731-0.808
		C424.69,169.502,437.722,178.422,443.757,191.244"/>
	<path fill-rule="evenodd" clip-rule="evenodd" fill="#ED6E16" d="M443.676,191.098c-0.881,13.129-11.812,23.462-25.166,23.462
		c-13.929,0-25.239-11.295-25.239-25.207c0-7.627,3.393-14.454,8.741-19.075c2.44-0.501,4.977-0.776,7.554-0.776
		C424.617,169.502,437.616,178.341,443.676,191.098"/>
	<path fill-rule="evenodd" clip-rule="evenodd" fill="#ED6E16" d="M443.587,190.928c-0.792,13.161-11.723,23.575-25.077,23.575
		c-13.88,0-25.126-11.278-25.126-25.15c0-7.684,3.409-14.51,8.79-19.115c2.407-0.46,4.88-0.735,7.392-0.735
		C424.568,169.502,437.512,178.244,443.587,190.928"/>
	<path fill-rule="evenodd" clip-rule="evenodd" fill="#ED6E19" d="M443.522,190.726c-0.728,13.193-11.658,23.656-25.013,23.656
		c-13.832,0-25.046-11.198-25.046-25.029c0-7.724,3.482-14.591,8.896-19.164c2.343-0.412,4.734-0.687,7.206-0.687
		C424.464,169.502,437.391,178.171,443.522,190.726"/>
	<path fill-rule="evenodd" clip-rule="evenodd" fill="#ED6E19" d="M443.426,190.605c-0.631,13.193-11.562,23.688-24.916,23.688
		c-13.783,0-24.948-11.165-24.948-24.94c0-7.74,3.49-14.607,8.983-19.212c2.278-0.404,4.638-0.639,7.021-0.639
		C424.423,169.502,437.261,178.107,443.426,190.605"/>
	<path fill-rule="evenodd" clip-rule="evenodd" fill="#EE7019" d="M443.345,190.395c-0.55,13.282-11.48,23.85-24.835,23.85
		c-13.734,0-24.868-11.157-24.868-24.892c0-7.756,3.571-14.688,9.098-19.212c2.214-0.404,4.483-0.639,6.826-0.639
		C424.367,169.502,437.164,178.026,443.345,190.395"/>
	<path fill-rule="evenodd" clip-rule="evenodd" fill="#EE7019" d="M443.28,190.258c-0.485,13.266-11.392,23.873-24.771,23.873
		c-13.687,0-24.771-11.116-24.771-24.778c0-7.78,3.555-14.712,9.193-19.252c2.149-0.412,4.379-0.598,6.633-0.598
		C424.286,169.502,437.026,177.954,443.28,190.258"/>
	<path fill-rule="evenodd" clip-rule="evenodd" fill="#EE701C" d="M443.183,190.081c-0.355,13.298-11.294,23.938-24.673,23.938
		c-13.605,0-24.674-11.028-24.674-24.666c0-7.796,3.636-14.793,9.274-19.293c2.085-0.372,4.266-0.558,6.455-0.558
		C424.213,169.502,436.914,177.873,443.183,190.081"/>
	<path fill-rule="evenodd" clip-rule="evenodd" fill="#EE701C" d="M443.103,189.918c-0.275,13.307-11.214,24.06-24.593,24.06
		c-13.581,0-24.609-11.044-24.609-24.625c0-7.861,3.668-14.809,9.388-19.333c2.036-0.331,4.153-0.517,6.277-0.517
		C424.148,169.502,436.809,177.808,443.103,189.918"/>
	<path fill-rule="evenodd" clip-rule="evenodd" fill="#EE721C" d="M443.005,189.741c-0.178,13.347-11.116,24.101-24.495,24.101
		c-13.541,0-24.496-10.988-24.496-24.488c0-7.861,3.7-14.85,9.452-19.35c1.987-0.339,4.023-0.501,6.1-0.501
		C424.108,169.502,436.704,177.735,443.005,189.741"/>
	<path fill-rule="evenodd" clip-rule="evenodd" fill="#EE721E" d="M442.908,189.603c-0.081,13.371-11.004,24.157-24.398,24.157
		c-13.492,0-24.407-10.923-24.407-24.407c0-7.901,3.725-14.922,9.565-19.39c1.915-0.299,3.902-0.461,5.897-0.461
		C424.02,169.502,436.559,177.67,442.908,189.603"/>
	<path fill-rule="evenodd" clip-rule="evenodd" fill="#EE721E" d="M442.844,189.393c-0.017,13.444-10.939,24.271-24.334,24.271
		c-13.46,0-24.335-10.875-24.335-24.311c0-7.918,3.781-14.971,9.671-19.414c1.858-0.291,3.789-0.437,5.72-0.437
		C423.963,169.502,436.461,177.574,442.844,189.393"/>
	<path fill-rule="evenodd" clip-rule="evenodd" fill="#EE721E" d="M442.747,189.353c0,13.347-10.858,24.213-24.237,24.213
		s-24.237-10.866-24.237-24.213c0-7.974,3.854-15.027,9.775-19.438c1.777-0.267,3.628-0.412,5.518-0.412
		c14.324,0,26.782,7.974,33.182,19.745V189.353z"/>
	<path fill-rule="evenodd" clip-rule="evenodd" fill="#EE721E" d="M442.634,189.353c0,13.322-10.794,24.108-24.124,24.108
		c-13.355,0-24.141-10.786-24.141-24.108c0-7.998,3.91-15.083,9.856-19.455c1.737-0.25,3.539-0.396,5.34-0.396
		c14.228,0,26.653,7.901,33.068,19.592C442.634,189.151,442.634,189.248,442.634,189.353"/>
	<path fill-rule="evenodd" clip-rule="evenodd" fill="#EE721E" d="M442.553,189.353c0,13.298-10.777,24.027-24.043,24.027
		c-13.282,0-24.044-10.729-24.044-24.027c0-8.03,3.935-15.124,9.962-19.455c1.672-0.25,3.385-0.396,5.138-0.396
		c14.18,0,26.532,7.853,32.987,19.398C442.553,189.079,442.553,189.208,442.553,189.353"/>
	<path fill-rule="evenodd" clip-rule="evenodd" fill="#EE7521" d="M442.456,189.353c0,13.226-10.713,23.946-23.946,23.946
		c-13.258,0-23.979-10.721-23.979-23.946c0-8.055,4-15.165,10.066-19.527c1.633-0.202,3.28-0.323,4.969-0.323
		c14.091,0,26.411,7.78,32.883,19.221C442.456,188.958,442.456,189.151,442.456,189.353"/>
	<path fill-rule="evenodd" clip-rule="evenodd" fill="#EE7521" d="M442.375,189.353c0,13.186-10.696,23.85-23.865,23.85
		c-13.186,0-23.866-10.664-23.866-23.85c0-8.071,4.016-15.221,10.155-19.527c1.535-0.202,3.159-0.323,4.767-0.323
		c14.018,0,26.314,7.7,32.81,19.059C442.375,188.852,442.375,189.094,442.375,189.353"/>
	<path fill-rule="evenodd" clip-rule="evenodd" fill="#EE7521" d="M442.278,189.353c0,13.161-10.632,23.777-23.769,23.777
		s-23.785-10.616-23.785-23.777c0-8.136,4.056-15.277,10.276-19.576c1.471-0.169,3.021-0.275,4.564-0.275
		c13.969,0,26.16,7.619,32.681,18.881C442.278,188.699,442.278,189.03,442.278,189.353"/>
	<path fill-rule="evenodd" clip-rule="evenodd" fill="#EE7523" d="M442.197,189.353c0,13.08-10.624,23.696-23.688,23.696
		c-13.08,0-23.688-10.616-23.688-23.696c0-8.151,4.112-15.318,10.374-19.576c1.438-0.169,2.859-0.275,4.37-0.275
		c13.904,0,26.039,7.522,32.607,18.72C442.197,188.602,442.197,188.99,442.197,189.353"/>
	<path fill-rule="evenodd" clip-rule="evenodd" fill="#EE7523" d="M442.101,189.353c0,13.023-10.567,23.583-23.591,23.583
		s-23.575-10.56-23.575-23.583c0-8.192,4.12-15.375,10.438-19.576c1.39-0.169,2.771-0.275,4.192-0.275
		c13.84,0,25.942,7.425,32.519,18.566C442.101,188.481,442.101,188.933,442.101,189.353"/>
	<path fill-rule="evenodd" clip-rule="evenodd" fill="#EE7523" d="M442.004,189.353c0,12.991-10.535,23.502-23.494,23.502
		c-12.983,0-23.511-10.511-23.511-23.502c0-8.208,4.193-15.415,10.584-19.648c1.309-0.137,2.634-0.202,3.982-0.202
		c13.743,0,25.797,7.385,32.382,18.389C442.004,188.359,442.004,188.86,442.004,189.353"/>
	<path fill-rule="evenodd" clip-rule="evenodd" fill="#EF7723" d="M441.923,189.353c0,12.895-10.486,23.397-23.413,23.397
		c-12.943,0-23.397-10.503-23.397-23.397c0-8.249,4.233-15.455,10.664-19.665c1.261-0.121,2.521-0.186,3.789-0.186
		c13.694,0,25.684,7.304,32.293,18.234C441.874,188.247,441.923,188.82,441.923,189.353"/>
	<path fill-rule="evenodd" clip-rule="evenodd" fill="#EF7726" d="M441.842,189.353c0,12.87-10.454,23.324-23.332,23.324
		c-12.902,0-23.316-10.454-23.316-23.324c0-8.257,4.29-15.536,10.77-19.689c1.188-0.097,2.415-0.162,3.603-0.162
		c13.613,0,25.555,7.207,32.195,18.049C441.842,188.166,441.842,188.723,441.842,189.353"/>
	<path fill-rule="evenodd" clip-rule="evenodd" fill="#EF7726" d="M441.745,189.353c0,12.813-10.406,23.26-23.235,23.26
		c-12.806,0-23.228-10.446-23.228-23.26c0-8.297,4.33-15.593,10.874-19.689c1.14-0.097,2.246-0.162,3.409-0.162
		c13.549,0,25.434,7.174,32.083,17.863C441.721,188.044,441.745,188.699,441.745,189.353"/>
	<path fill-rule="evenodd" clip-rule="evenodd" fill="#EF7728" d="M441.632,189.353c0,12.773-10.325,23.122-23.122,23.122
		c-12.781,0-23.131-10.349-23.131-23.122c0-8.313,4.403-15.633,10.979-19.705c1.051-0.097,2.141-0.146,3.207-0.146
		c13.469,0,25.32,7.069,31.953,17.718C441.6,187.931,441.632,188.602,441.632,189.353"/>
	<path fill-rule="evenodd" clip-rule="evenodd" fill="#EF7928" d="M441.551,189.353c0,12.732-10.309,23.05-23.041,23.05
		c-12.733,0-23.042-10.317-23.042-23.05c0-8.37,4.443-15.689,11.101-19.705c1.002-0.097,1.972-0.146,2.997-0.146
		c13.388,0,25.175,6.989,31.889,17.523C441.511,187.818,441.551,188.561,441.551,189.353"/>
	<path fill-rule="evenodd" clip-rule="evenodd" fill="#EF7928" d="M441.486,189.353c0,12.668-10.309,22.953-22.977,22.953
		c-12.685,0-22.961-10.285-22.961-22.953c0-8.395,4.508-15.73,11.222-19.729c0.921-0.073,1.834-0.122,2.795-0.122
		c13.307,0,25.054,6.932,31.775,17.37C441.422,187.697,441.486,188.481,441.486,189.353"/>
	<path fill-rule="evenodd" clip-rule="evenodd" fill="#EF7928" d="M441.373,189.353c0,12.636-10.228,22.832-22.863,22.832
		s-22.88-10.196-22.88-22.832c0-8.427,4.564-15.787,11.358-19.745c0.856-0.057,1.713-0.105,2.577-0.105
		c13.258,0,24.9,6.852,31.679,17.192C441.341,187.592,441.373,188.464,441.373,189.353"/>
	<path fill-rule="evenodd" clip-rule="evenodd" fill="#EF7928" d="M441.293,189.353c0,12.579-10.229,22.775-22.783,22.775
		c-12.556,0-22.768-10.196-22.768-22.775c0-8.451,4.589-15.811,11.44-19.745c0.775-0.081,1.592-0.105,2.383-0.105
		c13.186,0,24.795,6.795,31.533,17.031C441.244,187.455,441.293,188.383,441.293,189.353"/>
	<path fill-rule="evenodd" clip-rule="evenodd" fill="#EF7A2A" d="M441.18,189.353c0,12.515-10.132,22.678-22.67,22.678
		c-12.547,0-22.679-10.163-22.679-22.678c0-8.507,4.646-15.875,11.562-19.786c0.711-0.041,1.438-0.065,2.173-0.065
		c13.113,0,24.666,6.722,31.437,16.878C441.131,187.341,441.18,188.343,441.18,189.353"/>
	<path fill-rule="evenodd" clip-rule="evenodd" fill="#EF7A2A" d="M441.099,189.353c0,12.49-10.14,22.589-22.589,22.589
		c-12.475,0-22.598-10.099-22.598-22.589c0-8.531,4.727-15.948,11.675-19.786c0.646-0.041,1.309-0.065,1.979-0.065
		c13.032,0,24.537,6.641,31.307,16.691C441.034,187.22,441.099,188.262,441.099,189.353"/>
	<path fill-rule="evenodd" clip-rule="evenodd" fill="#EF7C2D" d="M441.034,189.353c0,12.434-10.099,22.517-22.524,22.517
		c-12.41,0-22.509-10.083-22.509-22.517c0-8.572,4.751-16.005,11.812-19.802c0.565-0.049,1.172-0.049,1.753-0.049
		c12.959,0,24.424,6.561,31.194,16.522C440.921,187.099,441.034,188.222,441.034,189.353"/>
	<path fill-rule="evenodd" clip-rule="evenodd" fill="#EF7C2D" d="M440.921,189.353c0,12.377-10.051,22.396-22.411,22.396
		c-12.378,0-22.412-10.019-22.412-22.396c0-8.588,4.832-16.053,11.925-19.802c0.485-0.049,1.002-0.049,1.543-0.049
		c12.887,0,24.278,6.456,31.064,16.336C440.84,187.002,440.921,188.166,440.921,189.353"/>
	<path fill-rule="evenodd" clip-rule="evenodd" fill="#EF7C2D" d="M440.84,189.353c0,12.32-10.018,22.322-22.33,22.322
		s-22.314-10.002-22.314-22.322c0-8.604,4.863-16.085,12.021-19.826c0.42-0.024,0.896-0.024,1.349-0.024
		c12.806,0,24.125,6.415,30.951,16.183C440.711,186.873,440.84,188.109,440.84,189.353"/>
	<path fill-rule="evenodd" clip-rule="evenodd" fill="#EF7C2D" d="M440.735,189.353c0,12.256-9.945,22.218-22.226,22.218
		s-22.242-9.962-22.242-22.218c0-8.661,4.952-16.167,12.143-19.826c0.364-0.024,0.792-0.024,1.155-0.024
		c12.758,0,24.02,6.342,30.838,16.005C440.63,186.768,440.735,188.044,440.735,189.353"/>
	<path fill-rule="evenodd" clip-rule="evenodd" fill="#F07E2F" d="M440.662,189.353c0,12.224-9.938,22.121-22.152,22.121
		c-12.216,0-22.137-9.897-22.137-22.121c0-8.685,4.96-16.207,12.264-19.851c0.323,0,0.63,0,0.929,0
		c12.692,0,23.866,6.246,30.709,15.812C440.517,186.647,440.662,187.971,440.662,189.353"/>
	<path fill-rule="evenodd" clip-rule="evenodd" fill="#F07E2F" d="M440.565,189.353c0,12.184-9.873,22.048-22.056,22.048
		c-12.191,0-22.048-9.864-22.048-22.048c0-8.709,5.041-16.263,12.393-19.851c0.219,0,0.477,0,0.711,0
		c12.58,0,23.737,6.181,30.596,15.634C440.428,186.509,440.565,187.915,440.565,189.353"/>
	<path fill-rule="evenodd" clip-rule="evenodd" fill="#F07E2F" d="M440.484,189.353c0,12.127-9.856,21.919-21.975,21.919
		c-12.103,0-21.943-9.792-21.943-21.919c0-8.766,5.106-16.279,12.507-19.851c0.153,0,0.291,0,0.492,0
		c12.515,0,23.6,6.108,30.467,15.496C440.307,186.413,440.484,187.867,440.484,189.353"/>
	<path fill-rule="evenodd" clip-rule="evenodd" fill="#F07E31" d="M440.388,189.353c0,12.078-9.808,21.846-21.878,21.846
		c-12.103,0-21.862-9.768-21.862-21.846c0-8.798,5.187-16.36,12.66-19.851c0.057,0,0.169,0,0.258,0
		c12.418,0,23.462,6.027,30.338,15.318C440.193,186.275,440.388,187.77,440.388,189.353"/>
	<path fill-rule="evenodd" clip-rule="evenodd" fill="#F07E31" d="M440.274,189.353c0,12.038-9.768,21.781-21.765,21.781
		c-12.038,0-21.781-9.743-21.781-21.781c0-8.839,5.268-16.384,12.78-19.851h0.057c12.337,0,23.309,5.93,30.184,15.101
		C440.113,186.178,440.274,187.737,440.274,189.353"/>
	<path fill-rule="evenodd" clip-rule="evenodd" fill="#F07E31" d="M440.193,189.353c0,11.965-9.711,21.685-21.684,21.685
		c-11.989,0-21.685-9.72-21.685-21.685c0-8.862,5.3-16.481,12.927-19.851c12.167,0.065,23.009,5.914,29.876,14.979
		C439.983,186.025,440.193,187.681,440.193,189.353"/>
	<path fill-rule="evenodd" clip-rule="evenodd" fill="#F08131" d="M440.081,189.353c0,11.949-9.646,21.571-21.571,21.571
		s-21.588-9.622-21.588-21.571c0-8.887,5.356-16.498,13.016-19.851c12.046,0.146,22.727,5.89,29.586,14.769
		C439.903,185.927,440.081,187.616,440.081,189.353"/>
	<path fill-rule="evenodd" clip-rule="evenodd" fill="#F08134" d="M440,189.353c0,11.908-9.614,21.507-21.49,21.507
		c-11.877,0-21.515-9.599-21.515-21.507c0-8.943,5.445-16.562,13.16-19.851c11.877,0.186,22.412,5.89,29.198,14.615
		C439.806,185.766,440,187.551,440,189.353"/>
	<path fill-rule="evenodd" clip-rule="evenodd" fill="#F08134" d="M439.919,189.353c0,11.812-9.63,21.41-21.409,21.41
		c-11.828,0-21.41-9.599-21.41-21.41c0-8.976,5.494-16.635,13.299-19.851c11.706,0.275,22.071,5.85,28.817,14.389
		C439.677,185.653,439.919,187.495,439.919,189.353"/>
	<path fill-rule="evenodd" clip-rule="evenodd" fill="#F08334" d="M439.822,189.353c0,11.771-9.55,21.337-21.313,21.337
		c-11.779,0-21.297-9.565-21.297-21.337c0-8.984,5.526-16.675,13.411-19.826c11.521,0.315,21.733,5.801,28.455,14.228
		C439.563,185.532,439.822,187.398,439.822,189.353"/>
	<path fill-rule="evenodd" clip-rule="evenodd" fill="#F08334" d="M439.749,189.353c0,11.723-9.517,21.216-21.239,21.216
		c-11.739,0-21.232-9.493-21.232-21.216c0-9.041,5.615-16.756,13.573-19.826c11.351,0.388,21.426,5.801,28.115,14.033
		C439.482,185.426,439.749,187.341,439.749,189.353"/>
	<path fill-rule="evenodd" clip-rule="evenodd" fill="#F08336" d="M439.66,189.353c0,11.69-9.484,21.135-21.15,21.135
		c-11.683,0-21.136-9.444-21.136-21.135c0-9.097,5.704-16.821,13.727-19.802c11.157,0.428,21.07,5.72,27.671,13.831
		C439.346,185.273,439.66,187.26,439.66,189.353"/>
	<path fill-rule="evenodd" clip-rule="evenodd" fill="#F08336" d="M439.563,189.353c0,11.634-9.412,21.063-21.054,21.063
		c-11.618,0-21.038-9.429-21.038-21.063c0-9.113,5.752-16.853,13.848-19.802c11.012,0.468,20.779,5.72,27.323,13.653
		C439.216,185.136,439.563,187.22,439.563,189.353"/>
	<path fill-rule="evenodd" clip-rule="evenodd" fill="#F08338" d="M439.482,189.353c0,11.569-9.403,20.941-20.973,20.941
		c-11.586,0-20.958-9.372-20.958-20.941c0-9.162,5.882-16.95,14.025-19.786c10.794,0.574,20.4,5.671,26.92,13.468
		C439.127,185.023,439.482,187.148,439.482,189.353"/>
	<path fill-rule="evenodd" clip-rule="evenodd" fill="#F08338" d="M439.386,189.353c0,11.513-9.348,20.877-20.876,20.877
		c-11.521,0-20.86-9.364-20.86-20.877c0-9.194,5.914-16.974,14.171-19.786c10.607,0.622,20.044,5.671,26.523,13.25
		C439.015,184.861,439.386,187.05,439.386,189.353"/>
	<path fill-rule="evenodd" clip-rule="evenodd" fill="#F18538" d="M439.289,189.353c0,11.488-9.291,20.779-20.779,20.779
		c-11.473,0-20.796-9.291-20.796-20.779c0-9.25,6.035-17.031,14.34-19.745c10.447,0.67,19.722,5.59,26.137,13.048
		C438.869,184.756,439.289,187.01,439.289,189.353"/>
	<path fill-rule="evenodd" clip-rule="evenodd" fill="#F18538" d="M439.192,189.353c0,11.416-9.291,20.683-20.683,20.683
		c-11.448,0-20.683-9.267-20.683-20.683c0-9.259,6.075-17.111,14.478-19.745c10.252,0.743,19.357,5.534,25.724,12.846
		C438.756,184.603,439.192,186.946,439.192,189.353"/>
	<path fill-rule="evenodd" clip-rule="evenodd" fill="#F1853B" d="M439.127,189.353c0,11.375-9.25,20.609-20.617,20.609
		c-11.376,0-20.618-9.234-20.618-20.609c0-9.299,6.181-17.152,14.663-19.705c10.043,0.768,19.011,5.494,25.328,12.636
		C438.667,184.522,439.127,186.873,439.127,189.353"/>
	<path fill-rule="evenodd" clip-rule="evenodd" fill="#F1873B" d="M439.015,189.353c0,11.311-9.194,20.473-20.505,20.473
		c-11.327,0-20.489-9.162-20.489-20.473c0-9.355,6.205-17.225,14.769-19.705c9.856,0.84,18.663,5.494,24.9,12.458
		C438.546,184.344,439.015,186.808,439.015,189.353"/>
	<path fill-rule="evenodd" clip-rule="evenodd" fill="#F1883D" d="M438.934,189.353c0,11.278-9.153,20.392-20.424,20.392
		c-11.287,0-20.425-9.113-20.425-20.392c0-9.396,6.343-17.289,14.963-19.689c9.679,0.905,18.291,5.478,24.488,12.249
		C438.433,184.248,438.934,186.711,438.934,189.353"/>
	<path fill-rule="evenodd" clip-rule="evenodd" fill="#F1883D" d="M438.82,189.353c0,11.238-9.081,20.311-20.311,20.311
		c-11.214,0-20.344-9.072-20.344-20.311c0-9.428,6.415-17.33,15.156-19.665c9.485,0.945,17.92,5.405,24.012,12.038
		C438.312,184.093,438.82,186.647,438.82,189.353"/>
	<path fill-rule="evenodd" clip-rule="evenodd" fill="#F1883D" d="M438.739,189.353c0,11.157-9.057,20.23-20.229,20.23
		c-11.198,0-20.23-9.073-20.23-20.23c0-9.469,6.496-17.427,15.277-19.648c9.315,1.002,17.589,5.349,23.607,11.812
		C438.19,183.916,438.739,186.558,438.739,189.353"/>
	<path fill-rule="evenodd" clip-rule="evenodd" fill="#F1883D" d="M438.643,189.353c0,11.133-9.032,20.133-20.133,20.133
		c-11.117,0-20.166-9-20.166-20.133c0-9.509,6.609-17.507,15.512-19.576c9.049,0.994,17.177,5.243,23.131,11.561
		C438.061,183.794,438.643,186.509,438.643,189.353"/>
	<path fill-rule="evenodd" clip-rule="evenodd" fill="#F1883F" d="M438.57,189.353c0,11.061-9.009,20.053-20.061,20.053
		c-11.068,0-20.053-8.992-20.053-20.053c0-9.59,6.674-17.548,15.633-19.576c8.911,1.083,16.846,5.235,22.719,11.368
		C437.932,183.641,438.57,186.436,438.57,189.353"/>
	<path fill-rule="evenodd" clip-rule="evenodd" fill="#F28A40" d="M438.465,189.353c0,11.02-8.936,19.972-19.955,19.972
		c-11.021,0-19.956-8.952-19.956-19.972c0-9.614,6.771-17.621,15.835-19.527c8.661,1.083,16.434,5.155,22.218,11.133
		C437.794,183.503,438.465,186.372,438.465,189.353"/>
	<path fill-rule="evenodd" clip-rule="evenodd" fill="#F28A40" d="M438.384,189.353c0,10.963-8.903,19.875-19.874,19.875
		c-10.996,0-19.858-8.912-19.858-19.875c0-9.63,6.875-17.677,15.996-19.511c8.467,1.18,16.062,5.114,21.757,10.923
		C437.657,183.35,438.384,186.275,438.384,189.353"/>
	<path fill-rule="evenodd" clip-rule="evenodd" fill="#F28A42" d="M438.287,189.353c0,10.898-8.879,19.754-19.777,19.754
		c-10.923,0-19.778-8.855-19.778-19.754c0-9.711,6.973-17.758,16.215-19.455c8.232,1.164,15.634,5.001,21.272,10.632
		C437.536,183.205,438.287,186.194,438.287,189.353"/>
	<path fill-rule="evenodd" clip-rule="evenodd" fill="#F28A42" d="M438.19,189.353c0,10.883-8.839,19.656-19.681,19.656
		c-10.875,0-19.697-8.773-19.697-19.656c0-9.727,7.126-17.855,16.409-19.414c8.038,1.22,15.261,4.96,20.787,10.374
		C437.431,183.036,438.19,186.097,438.19,189.353"/>
	<path fill-rule="evenodd" clip-rule="evenodd" fill="#F28A42" d="M438.109,189.353c0,10.802-8.782,19.6-19.6,19.6
		c-10.834,0-19.616-8.798-19.616-19.6c0-9.824,7.206-17.936,16.627-19.374c7.82,1.26,14.833,4.896,20.311,10.123
		C437.261,182.906,438.109,186.025,438.109,189.353"/>
	<path fill-rule="evenodd" clip-rule="evenodd" fill="#F28C44" d="M438.028,189.353c0,10.802-8.741,19.487-19.519,19.487
		c-10.811,0-19.495-8.686-19.495-19.487c0-9.849,7.304-18.017,16.78-19.333c7.61,1.293,14.438,4.823,19.777,9.905
		C437.132,182.72,438.028,185.927,438.028,189.353"/>
	<path fill-rule="evenodd" clip-rule="evenodd" fill="#F28C44" d="M437.915,189.353c0,10.721-8.668,19.422-19.405,19.422
		c-10.729,0-19.431-8.701-19.431-19.422c0-9.905,7.425-18.097,17.047-19.261c7.36,1.269,14.025,4.71,19.244,9.63
		C436.986,182.558,437.915,185.838,437.915,189.353"/>
	<path fill-rule="evenodd" clip-rule="evenodd" fill="#F28C44" d="M437.811,189.353c0,10.664-8.637,19.31-19.301,19.31
		c-10.665,0-19.317-8.646-19.317-19.31c0-9.986,7.538-18.194,17.24-19.212c7.118,1.309,13.573,4.605,18.72,9.363
		C436.849,182.397,437.811,185.766,437.811,189.353"/>
	<path fill-rule="evenodd" clip-rule="evenodd" fill="#F28F47" d="M437.722,189.353c0,10.592-8.572,19.229-19.212,19.229
		c-10.633,0-19.245-8.637-19.245-19.229c0-10.026,7.676-18.275,17.476-19.164c6.892,1.341,13.137,4.557,18.178,9.065
		C436.704,182.219,437.722,185.685,437.722,189.353"/>
	<path fill-rule="evenodd" clip-rule="evenodd" fill="#F28F47" d="M437.657,189.353c0,10.584-8.58,19.164-19.147,19.164
		s-19.132-8.58-19.132-19.164c0-10.099,7.772-18.332,17.686-19.075c6.665,1.333,12.717,4.427,17.604,8.79
		C436.559,182.049,437.657,185.572,437.657,189.353"/>
	<path fill-rule="evenodd" clip-rule="evenodd" fill="#F28F47" d="M437.56,189.353c0,10.527-8.556,19.051-19.05,19.051
		c-10.52,0-19.067-8.523-19.067-19.051c0-10.147,7.95-18.469,17.969-19.002c6.406,1.325,12.215,4.314,16.998,8.491
		C436.381,181.872,437.56,185.451,437.56,189.353"/>
	<path fill-rule="evenodd" clip-rule="evenodd" fill="#F28F47" d="M437.463,189.353c0,10.471-8.459,18.954-18.953,18.954
		c-10.463,0-18.986-8.483-18.986-18.954c0-10.236,8.079-18.55,18.243-18.938c6.14,1.357,11.763,4.226,16.384,8.2
		C436.251,181.669,437.463,185.386,437.463,189.353"/>
	<path fill-rule="evenodd" clip-rule="evenodd" fill="#F28F49" d="M437.358,189.353c0,10.406-8.443,18.889-18.849,18.889
		c-10.455,0-18.873-8.482-18.873-18.889c0-10.285,8.232-18.646,18.485-18.865c5.873,1.357,11.229,4.153,15.754,7.901
		C436.081,181.452,437.358,185.273,437.358,189.353"/>
	<path fill-rule="evenodd" clip-rule="evenodd" fill="#F28F49" d="M437.285,189.353c0,10.365-8.41,18.776-18.775,18.776
		c-10.366,0-18.792-8.411-18.792-18.776c0-10.374,8.386-18.728,18.711-18.784c5.68,1.357,10.818,3.991,15.156,7.578
		C435.912,181.282,437.285,185.136,437.285,189.353"/>
	<path fill-rule="evenodd" clip-rule="evenodd" fill="#F39149" d="M437.188,189.353c0,10.325-8.37,18.695-18.679,18.695
		c-10.31,0-18.68-8.37-18.68-18.695c0-10.341,8.37-18.671,18.68-18.671c0.112,0,0.226,0,0.339,0
		c5.349,1.357,10.261,3.846,14.413,7.207C435.726,181.056,437.188,185.039,437.188,189.353"/>
	<path fill-rule="evenodd" clip-rule="evenodd" fill="#F3914C" d="M437.092,189.353c0,10.293-8.322,18.582-18.582,18.582
		c-10.277,0-18.599-8.289-18.599-18.582c0-10.285,8.321-18.59,18.599-18.59c0.258,0,0.468,0,0.743,0.008
		c5.058,1.357,9.727,3.732,13.686,6.899C435.54,180.822,437.092,184.917,437.092,189.353"/>
	<path fill-rule="evenodd" clip-rule="evenodd" fill="#F3914C" d="M437.011,189.353c0,10.188-8.289,18.501-18.501,18.501
		s-18.518-8.313-18.518-18.501c0-10.236,8.306-18.509,18.518-18.509c0.371,0,0.743,0.016,1.131,0.041
		c4.782,1.317,9.178,3.547,12.983,6.479C435.362,180.587,437.011,184.781,437.011,189.353"/>
	<path fill-rule="evenodd" clip-rule="evenodd" fill="#F3934C" d="M436.938,189.353c0,10.172-8.265,18.42-18.428,18.42
		c-10.188,0-18.421-8.248-18.421-18.42c0-10.18,8.232-18.428,18.421-18.428c0.524,0,1.042,0.032,1.551,0.097
		c4.476,1.26,8.58,3.361,12.216,6.1C435.169,180.369,436.938,184.643,436.938,189.353"/>
	<path fill-rule="evenodd" clip-rule="evenodd" fill="#F3934E" d="M436.849,189.353c0,10.131-8.225,18.323-18.339,18.323
		c-10.132,0-18.324-8.192-18.324-18.323c0-10.123,8.192-18.332,18.324-18.332c0.662,0,1.356,0,2.02,0.121
		c4.12,1.236,7.982,3.183,11.359,5.688C434.958,180.094,436.849,184.522,436.849,189.353"/>
	<path fill-rule="evenodd" clip-rule="evenodd" fill="#F3934E" d="M436.728,189.353c0,10.059-8.151,18.267-18.218,18.267
		c-10.1,0-18.243-8.208-18.243-18.267c0-10.099,8.144-18.234,18.243-18.234c0.84,0,1.696,0.04,2.504,0.162
		c3.781,1.22,7.271,2.973,10.438,5.211C434.74,179.82,436.728,184.344,436.728,189.353"/>
	<path fill-rule="evenodd" clip-rule="evenodd" fill="#F3934E" d="M436.655,189.353c0,10.019-8.128,18.162-18.146,18.162
		c-10.011,0-18.122-8.144-18.122-18.162c0-10.026,8.111-18.17,18.122-18.17c1.042,0,2.035,0.097,3.037,0.267
		c3.377,1.131,6.577,2.747,9.485,4.767C434.466,179.521,436.655,184.207,436.655,189.353"/>
	<path fill-rule="evenodd" clip-rule="evenodd" fill="#F39450" d="M436.559,189.353c0,9.994-8.096,18.049-18.049,18.049
		c-10.002,0-18.081-8.055-18.081-18.049c0-9.986,8.079-18.041,18.081-18.041c1.26,0,2.439,0.105,3.595,0.363
		c3.014,1.042,5.785,2.456,8.402,4.169C434.191,179.117,436.559,183.989,436.559,189.353"/>
	<path fill-rule="evenodd" clip-rule="evenodd" fill="#F39651" d="M436.461,189.353c0,9.913-8.038,17.968-17.951,17.968
		s-17.944-8.055-17.944-17.968c0-9.945,8.031-17.96,17.944-17.96c1.479,0,2.908,0.162,4.298,0.509
		c2.505,0.953,4.863,2.133,7.069,3.53C433.892,178.753,436.461,183.754,436.461,189.353"/>
	<path fill-rule="evenodd" clip-rule="evenodd" fill="#F39651" d="M436.364,189.353c0,9.896-7.998,17.887-17.854,17.887
		c-9.905,0-17.871-7.99-17.871-17.887c0-9.889,7.966-17.855,17.871-17.855c1.777,0,3.474,0.234,5.073,0.719
		c1.947,0.775,3.806,1.721,5.566,2.795C433.553,178.244,436.364,183.48,436.364,189.353"/>
	<path fill-rule="evenodd" clip-rule="evenodd" fill="#F39653" d="M436.3,189.353c0,9.816-7.998,17.766-17.79,17.766
		c-9.809,0-17.774-7.949-17.774-17.766c0-9.832,7.966-17.798,17.774-17.798c2.181,0,4.273,0.428,6.204,1.123
		c1.132,0.509,2.295,1.083,3.41,1.729C433.027,177.574,436.3,183.068,436.3,189.353"/>
	<path fill-rule="evenodd" clip-rule="evenodd" fill="#F39653" d="M436.219,189.353c0,9.775-7.934,17.718-17.709,17.718
		c-9.792,0-17.693-7.942-17.693-17.718c0-9.768,7.901-17.677,17.693-17.677C428.285,171.676,436.219,179.585,436.219,189.353"/>
	<path fill-rule="evenodd" clip-rule="evenodd" fill="#F49853" d="M436.105,189.353c0,9.719-7.869,17.588-17.596,17.588
		c-9.735,0-17.597-7.869-17.597-17.588c0-9.727,7.861-17.588,17.597-17.588C428.236,171.765,436.105,179.626,436.105,189.353"/>
	<path fill-rule="evenodd" clip-rule="evenodd" fill="#F49855" d="M436.009,189.353c0,9.679-7.82,17.499-17.499,17.499
		s-17.508-7.82-17.508-17.499c0-9.687,7.829-17.507,17.508-17.507S436.009,179.666,436.009,189.353"/>
	<path fill-rule="evenodd" clip-rule="evenodd" fill="#F49855" d="M435.928,189.353c0,9.606-7.804,17.362-17.418,17.362
		s-17.419-7.756-17.419-17.362c0-9.63,7.805-17.427,17.419-17.427S435.928,179.723,435.928,189.353"/>
	<path fill-rule="evenodd" clip-rule="evenodd" fill="#F49857" d="M435.831,189.353c0,9.598-7.756,17.321-17.321,17.321
		c-9.566,0-17.313-7.724-17.313-17.321c0-9.59,7.747-17.313,17.313-17.313C428.075,172.04,435.831,179.763,435.831,189.353"/>
	<path fill-rule="evenodd" clip-rule="evenodd" fill="#F49857" d="M435.75,189.353c0,9.525-7.724,17.225-17.24,17.225
		c-9.525,0-17.225-7.699-17.225-17.225c0-9.533,7.699-17.225,17.225-17.225C428.026,172.128,435.75,179.82,435.75,189.353"/>
	<path fill-rule="evenodd" clip-rule="evenodd" fill="#F49A58" d="M435.678,189.353c0,9.444-7.691,17.12-17.168,17.12
		c-9.485,0-17.177-7.676-17.177-17.12c0-9.437,7.691-17.136,17.177-17.136C427.986,172.217,435.678,179.917,435.678,189.353"/>
	<path fill-rule="evenodd" clip-rule="evenodd" fill="#F49A58" d="M435.557,189.353c0,9.404-7.627,17.079-17.047,17.079
		c-9.437,0-17.056-7.675-17.056-17.079c0-9.412,7.619-17.071,17.056-17.071C427.93,172.282,435.557,179.941,435.557,189.353"/>
	<path fill-rule="evenodd" clip-rule="evenodd" fill="#F49B5A" d="M435.476,189.353c0,9.331-7.595,16.966-16.966,16.966
		c-9.38,0-16.958-7.635-16.958-16.966c0-9.372,7.578-16.974,16.958-16.974C427.881,172.379,435.476,179.981,435.476,189.353"/>
	<path fill-rule="evenodd" clip-rule="evenodd" fill="#F49D5A" d="M435.395,189.353c0,9.308-7.562,16.861-16.885,16.861
		c-9.308,0-16.878-7.554-16.878-16.861c0-9.339,7.57-16.894,16.878-16.894C427.833,172.459,435.395,180.014,435.395,189.353"/>
	<path fill-rule="evenodd" clip-rule="evenodd" fill="#F49D5C" d="M435.273,189.353c0,9.267-7.489,16.805-16.764,16.805
		c-9.283,0-16.78-7.538-16.78-16.805c0-9.275,7.497-16.796,16.78-16.796C427.784,172.557,435.273,180.078,435.273,189.353"/>
	<path fill-rule="evenodd" clip-rule="evenodd" fill="#F49D5C" d="M435.185,189.353c0,9.202-7.465,16.691-16.675,16.691
		c-9.202,0-16.7-7.489-16.7-16.691c0-9.25,7.498-16.675,16.7-16.675C427.72,172.678,435.185,180.103,435.185,189.353"/>
	<path fill-rule="evenodd" clip-rule="evenodd" fill="#F49D5C" d="M435.12,189.353c0,9.146-7.425,16.61-16.61,16.61
		c-9.179,0-16.627-7.465-16.627-16.61c0-9.194,7.448-16.603,16.627-16.603C427.695,172.75,435.12,180.159,435.12,189.353"/>
	<path fill-rule="evenodd" clip-rule="evenodd" fill="#F49D5C" d="M434.999,189.353c0,9.113-7.376,16.53-16.489,16.53
		c-9.146,0-16.514-7.417-16.514-16.53s7.368-16.498,16.514-16.498C427.623,172.855,434.999,180.24,434.999,189.353"/>
	<path fill-rule="evenodd" clip-rule="evenodd" fill="#F59F5F" d="M434.918,189.353c0,9.049-7.312,16.433-16.408,16.433
		c-9.081,0-16.409-7.384-16.409-16.433c0-9.097,7.328-16.425,16.409-16.425C427.606,172.928,434.918,180.256,434.918,189.353"/>
	<path fill-rule="evenodd" clip-rule="evenodd" fill="#F59F5F" d="M434.829,189.353c0,8.976-7.312,16.328-16.319,16.328
		c-9.017,0-16.336-7.353-16.336-16.328c0-9.041,7.319-16.344,16.336-16.344C427.518,173.009,434.829,180.313,434.829,189.353"/>
	<path fill-rule="evenodd" clip-rule="evenodd" fill="#F59F61" d="M434.74,189.353c0,8.976-7.255,16.271-16.23,16.271
		c-8.968,0-16.256-7.296-16.256-16.271c0-8.976,7.288-16.231,16.256-16.231C427.485,173.122,434.74,180.377,434.74,189.353"/>
	<path fill-rule="evenodd" clip-rule="evenodd" fill="#F5A162" d="M434.668,189.353c0,8.911-7.239,16.143-16.158,16.143
		c-8.928,0-16.15-7.231-16.15-16.143c0-8.943,7.223-16.167,16.15-16.167C427.429,173.187,434.668,180.41,434.668,189.353"/>
	<path fill-rule="evenodd" clip-rule="evenodd" fill="#F5A162" d="M434.563,189.353c0,8.854-7.174,16.037-16.053,16.037
		c-8.871,0-16.069-7.183-16.069-16.037c0-8.879,7.198-16.069,16.069-16.069C427.389,173.284,434.563,180.474,434.563,189.353"/>
	<path fill-rule="evenodd" clip-rule="evenodd" fill="#F5A162" d="M434.458,189.353c0,8.798-7.126,15.956-15.948,15.956
		c-8.807,0-15.965-7.158-15.965-15.956c0-8.839,7.158-15.964,15.965-15.964C427.332,173.389,434.458,180.514,434.458,189.353"/>
	<path fill-rule="evenodd" clip-rule="evenodd" fill="#F5A164" d="M434.393,189.353c0,8.774-7.125,15.875-15.883,15.875
		s-15.868-7.101-15.868-15.875c0-8.766,7.11-15.867,15.868-15.867S434.393,180.587,434.393,189.353"/>
	<path fill-rule="evenodd" clip-rule="evenodd" fill="#F5A164" d="M434.296,189.353c0,8.701-7.053,15.778-15.786,15.778
		c-8.71,0-15.779-7.077-15.779-15.778c0-8.709,7.069-15.811,15.779-15.811C427.243,173.542,434.296,180.644,434.296,189.353"/>
	<path fill-rule="evenodd" clip-rule="evenodd" fill="#F5A364" d="M434.183,189.353c0,8.652-7.013,15.682-15.673,15.682
		c-8.678,0-15.698-7.029-15.698-15.682c0-8.669,7.021-15.698,15.698-15.698C427.17,173.655,434.183,180.684,434.183,189.353"/>
	<path fill-rule="evenodd" clip-rule="evenodd" fill="#F5A466" d="M434.11,189.353c0,8.62-6.973,15.609-15.601,15.609
		c-8.612,0-15.642-6.989-15.642-15.609c0-8.661,7.029-15.617,15.642-15.617C427.138,173.736,434.11,180.692,434.11,189.353"/>
	<path fill-rule="evenodd" clip-rule="evenodd" fill="#F5A466" d="M434.037,189.353c0,8.54-6.947,15.528-15.527,15.528
		c-8.572,0-15.528-6.988-15.528-15.528c0-8.572,6.956-15.536,15.528-15.536C427.09,173.817,434.037,180.781,434.037,189.353"/>
	<path fill-rule="evenodd" clip-rule="evenodd" fill="#F5A468" d="M433.933,189.353c0,8.483-6.924,15.407-15.423,15.407
		c-8.491,0-15.415-6.924-15.415-15.407c0-8.531,6.924-15.415,15.415-15.415C427.009,173.938,433.933,180.822,433.933,189.353"/>
	<path fill-rule="evenodd" clip-rule="evenodd" fill="#F5A468" d="M433.844,189.353c0,8.475-6.867,15.351-15.334,15.351
		c-8.476,0-15.335-6.876-15.335-15.351s6.859-15.318,15.335-15.318C426.977,174.035,433.844,180.878,433.844,189.353"/>
	<path fill-rule="evenodd" clip-rule="evenodd" fill="#F6A669" d="M433.73,189.353c0,8.418-6.818,15.253-15.221,15.253
		s-15.222-6.835-15.222-15.253c0-8.395,6.819-15.245,15.222-15.245S433.73,180.958,433.73,189.353"/>
	<path fill-rule="evenodd" clip-rule="evenodd" fill="#F6A669" d="M433.649,189.353c0,8.362-6.77,15.148-15.14,15.148
		s-15.141-6.786-15.141-15.148c0-8.37,6.771-15.156,15.141-15.156S433.649,180.983,433.649,189.353"/>
	<path fill-rule="evenodd" clip-rule="evenodd" fill="#F6A66B" d="M433.585,189.353c0,8.281-6.771,15.06-15.075,15.06
		c-8.322,0-15.076-6.778-15.076-15.06c0-8.313,6.754-15.083,15.076-15.083C426.814,174.27,433.585,181.04,433.585,189.353"/>
	<path fill-rule="evenodd" clip-rule="evenodd" fill="#F6A66B" d="M433.456,189.353c0,8.225-6.689,14.954-14.946,14.954
		s-14.987-6.729-14.987-14.954c0-8.257,6.73-14.971,14.987-14.971S433.456,181.096,433.456,189.353"/>
	<path fill-rule="evenodd" clip-rule="evenodd" fill="#F6A86E" d="M433.383,189.353c0,8.208-6.673,14.882-14.873,14.882
		c-8.217,0-14.866-6.674-14.866-14.882s6.649-14.85,14.866-14.85C426.71,174.503,433.383,181.145,433.383,189.353"/>
	<path fill-rule="evenodd" clip-rule="evenodd" fill="#F6A86E" d="M433.303,189.353c0,8.168-6.649,14.793-14.793,14.793
		c-8.177,0-14.802-6.625-14.802-14.793c0-8.192,6.625-14.793,14.802-14.793C426.653,174.56,433.303,181.161,433.303,189.353"/>
	<path fill-rule="evenodd" clip-rule="evenodd" fill="#F6A86E" d="M433.197,189.353c0,8.119-6.585,14.68-14.688,14.68
		c-8.12,0-14.688-6.561-14.688-14.68c0-8.136,6.568-14.712,14.688-14.712C426.612,174.641,433.197,181.217,433.197,189.353"/>
	<path fill-rule="evenodd" clip-rule="evenodd" fill="#F6A870" d="M433.125,189.353c0,8.087-6.536,14.623-14.615,14.623
		s-14.607-6.536-14.607-14.623c0-8.071,6.528-14.607,14.607-14.607S433.125,181.282,433.125,189.353"/>
	<path fill-rule="evenodd" clip-rule="evenodd" fill="#F6AA70" d="M433.027,189.353c0,8.007-6.495,14.519-14.518,14.519
		c-7.999,0-14.511-6.512-14.511-14.519c0-8.03,6.512-14.51,14.511-14.51C426.532,174.843,433.027,181.323,433.027,189.353"/>
	<path fill-rule="evenodd" clip-rule="evenodd" fill="#F6AA70" d="M432.906,189.353c0,7.966-6.455,14.43-14.396,14.43
		c-7.967,0-14.438-6.464-14.438-14.43c0-7.974,6.471-14.454,14.438-14.454C426.451,174.899,432.906,181.379,432.906,189.353"/>
	<path fill-rule="evenodd" clip-rule="evenodd" fill="#F6AA72" d="M432.85,189.353c0,7.894-6.438,14.349-14.34,14.349
		c-7.918,0-14.333-6.455-14.333-14.349c0-7.918,6.415-14.34,14.333-14.34C426.411,175.013,432.85,181.435,432.85,189.353"/>
	<path fill-rule="evenodd" clip-rule="evenodd" fill="#F6AA72" d="M432.753,189.353c0,7.853-6.366,14.228-14.243,14.228
		c-7.886,0-14.26-6.375-14.26-14.228c0-7.861,6.374-14.211,14.26-14.211C426.387,175.142,432.753,181.492,432.753,189.353"/>
	<path fill-rule="evenodd" clip-rule="evenodd" fill="#F7AD73" d="M432.632,189.353c0,7.813-6.302,14.171-14.122,14.171
		c-7.805,0-14.139-6.358-14.139-14.171c0-7.796,6.334-14.155,14.139-14.155C426.33,175.198,432.632,181.557,432.632,189.353"/>
	<path fill-rule="evenodd" clip-rule="evenodd" fill="#F7AD75" d="M432.567,189.353c0,7.748-6.286,14.09-14.058,14.09
		c-7.756,0-14.082-6.342-14.082-14.09c0-7.78,6.326-14.082,14.082-14.082C426.281,175.271,432.567,181.573,432.567,189.353"/>
	<path fill-rule="evenodd" clip-rule="evenodd" fill="#F7AD75" d="M432.47,189.353c0,7.716-6.245,13.953-13.96,13.953
		c-7.708,0-13.985-6.237-13.985-13.953c0-7.74,6.277-13.96,13.985-13.96C426.225,175.393,432.47,181.613,432.47,189.353"/>
	<path fill-rule="evenodd" clip-rule="evenodd" fill="#F7AD77" d="M432.357,189.353c0,7.667-6.173,13.872-13.848,13.872
		c-7.659,0-13.88-6.205-13.88-13.872c0-7.684,6.221-13.92,13.88-13.92C426.185,175.433,432.357,181.669,432.357,189.353"/>
	<path fill-rule="evenodd" clip-rule="evenodd" fill="#F7AF78" d="M432.292,189.353c0,7.595-6.14,13.775-13.782,13.775
		c-7.595,0-13.808-6.181-13.808-13.775c0-7.627,6.213-13.823,13.808-13.823C426.152,175.53,432.292,181.726,432.292,189.353"/>
	<path fill-rule="evenodd" clip-rule="evenodd" fill="#F7AF78" d="M432.228,189.353c0,7.57-6.14,13.694-13.718,13.694
		c-7.563,0-13.711-6.124-13.711-13.694c0-7.563,6.148-13.71,13.711-13.71C426.088,175.643,432.228,181.791,432.228,189.353"/>
	<path fill-rule="evenodd" clip-rule="evenodd" fill="#F7AF78" d="M432.123,189.353c0,7.514-6.116,13.621-13.613,13.621
		c-7.498,0-13.605-6.107-13.605-13.621c0-7.521,6.107-13.629,13.605-13.629C426.007,175.724,432.123,181.832,432.123,189.353"/>
	<path fill-rule="evenodd" clip-rule="evenodd" fill="#F7AF7A" d="M432.042,189.353c0,7.44-6.06,13.5-13.532,13.5
		c-7.457,0-13.541-6.06-13.541-13.5c0-7.449,6.084-13.508,13.541-13.508C425.982,175.845,432.042,181.904,432.042,189.353"/>
	<path fill-rule="evenodd" clip-rule="evenodd" fill="#F7B17B" d="M431.904,189.353c0,7.433-5.994,13.436-13.395,13.436
		c-7.409,0-13.428-6.003-13.428-13.436c0-7.425,6.019-13.436,13.428-13.436C425.91,175.917,431.904,181.928,431.904,189.353"/>
	<path fill-rule="evenodd" clip-rule="evenodd" fill="#F7B17B" d="M431.84,189.353c0,7.36-5.994,13.347-13.33,13.347
		c-7.393,0-13.355-5.986-13.355-13.347c0-7.385,5.963-13.354,13.355-13.354C425.846,175.999,431.84,181.968,431.84,189.353"/>
	<path fill-rule="evenodd" clip-rule="evenodd" fill="#F7B17D" d="M431.775,189.353c0,7.304-5.963,13.242-13.266,13.242
		c-7.32,0-13.258-5.938-13.258-13.242s5.938-13.258,13.258-13.258C425.813,176.095,431.775,182.049,431.775,189.353"/>
	<path fill-rule="evenodd" clip-rule="evenodd" fill="#F7B17D" d="M431.662,189.353c0,7.239-5.882,13.169-13.152,13.169
		c-7.288,0-13.161-5.93-13.161-13.169c0-7.247,5.873-13.137,13.161-13.137C425.78,176.216,431.662,182.106,431.662,189.353"/>
	<path fill-rule="evenodd" clip-rule="evenodd" fill="#F8B37F" d="M431.565,189.353c0,7.198-5.842,13.08-13.056,13.08
		c-7.207,0-13.057-5.882-13.057-13.08c0-7.215,5.85-13.056,13.057-13.056C425.724,176.297,431.565,182.138,431.565,189.353"/>
	<path fill-rule="evenodd" clip-rule="evenodd" fill="#F8B37F" d="M431.469,189.353c0,7.142-5.785,12.991-12.959,12.991
		c-7.19,0-12.983-5.85-12.983-12.991c0-7.19,5.793-12.999,12.983-12.999C425.684,176.354,431.469,182.163,431.469,189.353"/>
	<path fill-rule="evenodd" clip-rule="evenodd" fill="#F8B37F" d="M431.388,189.353c0,7.077-5.785,12.87-12.878,12.87
		c-7.134,0-12.902-5.793-12.902-12.87c0-7.094,5.769-12.894,12.902-12.894C425.603,176.459,431.388,182.259,431.388,189.353"/>
	<path fill-rule="evenodd" clip-rule="evenodd" fill="#F8B37F" d="M431.307,189.353c0,7.045-5.736,12.773-12.797,12.773
		c-7.045,0-12.806-5.729-12.806-12.773c0-7.069,5.761-12.781,12.806-12.781C425.57,176.572,431.307,182.284,431.307,189.353"/>
	<path fill-rule="evenodd" clip-rule="evenodd" fill="#F8B682" d="M431.218,189.353c0,7.005-5.712,12.708-12.708,12.708
		c-7.005,0-12.733-5.703-12.733-12.708c0-7.037,5.729-12.716,12.733-12.716C425.506,176.637,431.218,182.316,431.218,189.353"/>
	<path fill-rule="evenodd" clip-rule="evenodd" fill="#F8B682" d="M431.113,189.353c0,6.948-5.64,12.611-12.604,12.611
		c-6.98,0-12.62-5.663-12.62-12.611c0-6.956,5.64-12.644,12.62-12.644C425.474,176.709,431.113,182.397,431.113,189.353"/>
	<path fill-rule="evenodd" clip-rule="evenodd" fill="#F8B684" d="M431.032,189.353c0,6.907-5.631,12.515-12.522,12.515
		c-6.933,0-12.522-5.607-12.522-12.515c0-6.932,5.59-12.522,12.522-12.522C425.401,176.831,431.032,182.421,431.032,189.353"/>
	<path fill-rule="evenodd" clip-rule="evenodd" fill="#F8B684" d="M430.943,189.353c0,6.884-5.583,12.441-12.434,12.441
		c-6.884,0-12.426-5.558-12.426-12.441c0-6.875,5.542-12.442,12.426-12.442C425.36,176.911,430.943,182.478,430.943,189.353"/>
	<path fill-rule="evenodd" clip-rule="evenodd" fill="#F8B885" d="M430.822,189.353c0,6.811-5.51,12.32-12.313,12.32
		c-6.819,0-12.354-5.51-12.354-12.32c0-6.818,5.534-12.345,12.354-12.345C425.313,177.008,430.822,182.535,430.822,189.353"/>
	<path fill-rule="evenodd" clip-rule="evenodd" fill="#F8B887" d="M430.725,189.353c0,6.771-5.445,12.224-12.215,12.224
		c-6.755,0-12.248-5.453-12.248-12.224c0-6.778,5.493-12.288,12.248-12.288C425.279,177.065,430.725,182.575,430.725,189.353"/>
	<path fill-rule="evenodd" clip-rule="evenodd" fill="#F8B887" d="M430.66,189.353c0,6.714-5.47,12.159-12.15,12.159
		c-6.689,0-12.176-5.445-12.176-12.159c0-6.722,5.486-12.151,12.176-12.151C425.19,177.202,430.66,182.631,430.66,189.353"/>
	<path fill-rule="evenodd" clip-rule="evenodd" fill="#F8B888" d="M430.58,189.353c0,6.633-5.413,12.063-12.07,12.063
		s-12.07-5.43-12.07-12.063c0-6.682,5.413-12.07,12.07-12.07S430.58,182.671,430.58,189.353"/>
	<path fill-rule="evenodd" clip-rule="evenodd" fill="#F8B888" d="M430.482,189.353c0,6.633-5.349,11.965-11.973,11.965
		c-6.625,0-11.989-5.332-11.989-11.965s5.364-11.998,11.989-11.998C425.134,177.355,430.482,182.72,430.482,189.353"/>
	<path fill-rule="evenodd" clip-rule="evenodd" fill="#F9BA89" d="M430.386,189.353c0,6.536-5.3,11.908-11.876,11.908
		c-6.577,0-11.901-5.372-11.901-11.908c0-6.561,5.324-11.917,11.901-11.917C425.086,177.437,430.386,182.792,430.386,189.353"/>
	<path fill-rule="evenodd" clip-rule="evenodd" fill="#F9BA89" d="M430.289,189.353c0,6.528-5.284,11.804-11.779,11.804
		c-6.528,0-11.779-5.275-11.779-11.804c0-6.536,5.251-11.779,11.779-11.779C425.005,177.574,430.289,182.817,430.289,189.353"/>
	<path fill-rule="evenodd" clip-rule="evenodd" fill="#F8BA8B" d="M430.208,189.353c0,6.455-5.235,11.707-11.698,11.707
		c-6.456,0-11.724-5.252-11.724-11.707c0-6.447,5.268-11.683,11.724-11.683C424.973,177.67,430.208,182.906,430.208,189.353"/>
	<path fill-rule="evenodd" clip-rule="evenodd" fill="#F9BC8C" d="M430.127,189.353c0,6.407-5.203,11.626-11.617,11.626
		c-6.432,0-11.602-5.219-11.602-11.626c0-6.423,5.17-11.618,11.602-11.618C424.924,177.735,430.127,182.93,430.127,189.353"/>
	<path fill-rule="evenodd" clip-rule="evenodd" fill="#F9BC8E" d="M430.038,189.353c0,6.374-5.187,11.513-11.528,11.513
		c-6.375,0-11.521-5.139-11.521-11.513c0-6.383,5.146-11.545,11.521-11.545C424.852,177.808,430.038,182.97,430.038,189.353"/>
	<path fill-rule="evenodd" clip-rule="evenodd" fill="#F9BC8E" d="M429.901,189.353c0,6.31-5.082,11.432-11.392,11.432
		c-6.334,0-11.448-5.122-11.448-11.432c0-6.317,5.114-11.456,11.448-11.456C424.819,177.897,429.901,183.036,429.901,189.353"/>
	<path fill-rule="evenodd" clip-rule="evenodd" fill="#F9BC8E" d="M429.82,189.353c0,6.253-5.042,11.311-11.311,11.311
		c-6.278,0-11.359-5.058-11.359-11.311c0-6.245,5.081-11.359,11.359-11.359C424.778,177.994,429.82,183.108,429.82,189.353"/>
	<path fill-rule="evenodd" clip-rule="evenodd" fill="#F9BC90" d="M429.756,189.353c0,6.221-5.042,11.271-11.246,11.271
		c-6.205,0-11.246-5.05-11.246-11.271s5.041-11.246,11.246-11.246C424.714,178.107,429.756,183.132,429.756,189.353"/>
	<path fill-rule="evenodd" clip-rule="evenodd" fill="#F9BE90" d="M429.683,189.353c0,6.196-4.992,11.157-11.173,11.157
		c-6.156,0-11.166-4.961-11.166-11.157c0-6.164,5.01-11.182,11.166-11.182C424.69,178.171,429.683,183.189,429.683,189.353"/>
	<path fill-rule="evenodd" clip-rule="evenodd" fill="#F9BE92" d="M429.562,189.353c0,6.084-4.944,11.061-11.052,11.061
		c-6.124,0-11.068-4.977-11.068-11.061c0-6.107,4.944-11.084,11.068-11.084C424.617,178.269,429.562,183.246,429.562,189.353"/>
	<path fill-rule="evenodd" clip-rule="evenodd" fill="#F9BE92" d="M429.513,189.353c0,6.035-4.928,10.996-11.003,10.996
		c-6.076,0-10.996-4.961-10.996-10.996c0-6.067,4.92-10.987,10.996-10.987C424.585,178.366,429.513,183.286,429.513,189.353"/>
	<path fill-rule="evenodd" clip-rule="evenodd" fill="#F9C093" d="M429.4,189.353c0,6.019-4.864,10.883-10.891,10.883
		c-6.027,0-10.907-4.864-10.907-10.883c0-6.003,4.88-10.891,10.907-10.891C424.536,178.462,429.4,183.35,429.4,189.353"/>
	<path fill-rule="evenodd" clip-rule="evenodd" fill="#F9C093" d="M429.287,189.353c0,5.963-4.823,10.802-10.777,10.802
		c-5.955,0-10.818-4.839-10.818-10.802c0-5.971,4.863-10.826,10.818-10.826C424.464,178.527,429.287,183.382,429.287,189.353"/>
	<path fill-rule="evenodd" clip-rule="evenodd" fill="#F9C095" d="M429.206,189.353c0,5.906-4.783,10.705-10.696,10.705
		c-5.906,0-10.697-4.799-10.697-10.705s4.791-10.697,10.697-10.697C424.423,178.656,429.206,183.447,429.206,189.353"/>
	<path fill-rule="evenodd" clip-rule="evenodd" fill="#F9C095" d="M429.125,189.353c0,5.841-4.758,10.592-10.615,10.592
		c-5.85,0-10.633-4.751-10.633-10.592c0-5.873,4.783-10.632,10.633-10.632C424.367,178.721,429.125,183.48,429.125,189.353"/>
	<path fill-rule="evenodd" clip-rule="evenodd" fill="#F9C095" d="M429.045,189.353c0,5.801-4.702,10.527-10.535,10.527
		c-5.817,0-10.52-4.727-10.52-10.527c0-5.833,4.702-10.551,10.52-10.551C424.343,178.802,429.045,183.52,429.045,189.353"/>
	<path fill-rule="evenodd" clip-rule="evenodd" fill="#FAC398" d="M428.956,189.353c0,5.761-4.694,10.406-10.446,10.406
		c-5.769,0-10.455-4.646-10.455-10.406c0-5.752,4.687-10.438,10.455-10.438C424.262,178.915,428.956,183.601,428.956,189.353"/>
	<path fill-rule="evenodd" clip-rule="evenodd" fill="#FAC398" d="M428.875,189.353c0,5.72-4.662,10.35-10.365,10.35
		c-5.721,0-10.357-4.63-10.357-10.35c0-5.736,4.637-10.374,10.357-10.374C424.213,178.979,428.875,183.617,428.875,189.353"/>
	<path fill-rule="evenodd" clip-rule="evenodd" fill="#FAC39A" d="M428.754,189.353c0,5.663-4.605,10.252-10.244,10.252
		c-5.655,0-10.212-4.589-10.212-10.252c0-5.68,4.557-10.244,10.212-10.244C424.148,179.109,428.754,183.673,428.754,189.353"/>
	<path fill-rule="evenodd" clip-rule="evenodd" fill="#FAC59A" d="M428.641,189.353c0,5.591-4.508,10.147-10.131,10.147
		c-5.607,0-10.18-4.557-10.18-10.147c0-5.631,4.572-10.18,10.18-10.18C424.133,179.173,428.641,183.722,428.641,189.353"/>
	<path fill-rule="evenodd" clip-rule="evenodd" fill="#FAC59A" d="M428.576,189.353c0,5.566-4.517,10.059-10.066,10.059
		c-5.543,0-10.1-4.492-10.1-10.059c0-5.574,4.557-10.099,10.1-10.099C424.06,179.254,428.576,183.779,428.576,189.353"/>
	<path fill-rule="evenodd" clip-rule="evenodd" fill="#FAC59C" d="M428.512,189.353c0,5.51-4.492,9.994-10.002,9.994
		c-5.526,0-10.002-4.484-10.002-9.994c0-5.534,4.476-9.986,10.002-9.986C424.02,179.367,428.512,183.819,428.512,189.353"/>
	<path fill-rule="evenodd" clip-rule="evenodd" fill="#FAC59C" d="M428.398,189.353c0,5.453-4.436,9.913-9.889,9.913
		c-5.462,0-9.905-4.46-9.905-9.913c0-5.494,4.443-9.905,9.905-9.905C423.963,179.448,428.398,183.859,428.398,189.353"/>
	<path fill-rule="evenodd" clip-rule="evenodd" fill="#FAC79F" d="M428.285,189.353c0,5.43-4.379,9.784-9.775,9.784
		c-5.422,0-9.809-4.354-9.809-9.784c0-5.438,4.387-9.784,9.809-9.784C423.906,179.569,428.285,183.916,428.285,189.353"/>
	<path fill-rule="evenodd" clip-rule="evenodd" fill="#FAC79F" d="M428.236,189.353c0,5.364-4.379,9.719-9.727,9.719
		c-5.373,0-9.735-4.354-9.735-9.719s4.362-9.727,9.735-9.727C423.857,179.626,428.236,183.989,428.236,189.353"/>
	<path fill-rule="evenodd" clip-rule="evenodd" fill="#FAC79F" d="M428.124,189.353c0,5.308-4.307,9.606-9.614,9.606
		c-5.324,0-9.614-4.299-9.614-9.606c0-5.324,4.29-9.614,9.614-9.614C423.817,179.739,428.124,184.029,428.124,189.353"/>
	<path fill-rule="evenodd" clip-rule="evenodd" fill="#FBC9A0" d="M428.026,189.353c0,5.268-4.241,9.525-9.517,9.525
		c-5.252,0-9.525-4.258-9.525-9.525c0-5.235,4.273-9.533,9.525-9.533C423.785,179.82,428.026,184.118,428.026,189.353"/>
	<path fill-rule="evenodd" clip-rule="evenodd" fill="#FBC9A2" d="M427.97,189.353c0,5.211-4.273,9.42-9.46,9.42
		c-5.228,0-9.437-4.209-9.437-9.42c0-5.219,4.209-9.437,9.437-9.437C423.696,179.917,427.97,184.134,427.97,189.353"/>
	<path fill-rule="evenodd" clip-rule="evenodd" fill="#FBC9A2" d="M427.865,189.353c0,5.139-4.209,9.331-9.355,9.331
		s-9.34-4.192-9.34-9.331c0-5.146,4.193-9.355,9.34-9.355S427.865,184.207,427.865,189.353"/>
	<path fill-rule="evenodd" clip-rule="evenodd" fill="#FAC9A4" d="M427.784,189.353c0,5.114-4.152,9.227-9.274,9.227
		c-5.106,0-9.259-4.112-9.259-9.227c0-5.105,4.152-9.259,9.259-9.259C423.632,180.094,427.784,184.248,427.784,189.353"/>
	<path fill-rule="evenodd" clip-rule="evenodd" fill="#FAC9A4" d="M427.671,189.353c0,5.058-4.12,9.146-9.161,9.146
		c-5.065,0-9.179-4.088-9.179-9.146c0-5.05,4.113-9.178,9.179-9.178C423.551,180.175,427.671,184.303,427.671,189.353"/>
	<path fill-rule="evenodd" clip-rule="evenodd" fill="#FBCBA4" d="M427.606,189.353c0,5.001-4.104,9.049-9.097,9.049
		c-5.01,0-9.081-4.016-9.081-9.049c0-5.025,4.071-9.097,9.081-9.097C423.502,180.256,427.606,184.328,427.606,189.353"/>
	<path fill-rule="evenodd" clip-rule="evenodd" fill="#FBCBA6" d="M427.485,189.353c0,4.977-4.016,8.976-8.976,8.976
		c-4.969,0-9.001-3.999-9.001-8.976c0-4.984,4.032-8.976,9.001-8.976C423.47,180.377,427.485,184.369,427.485,189.353"/>
	<path fill-rule="evenodd" clip-rule="evenodd" fill="#FBCBA6" d="M427.389,189.353c0,4.912-3.983,8.911-8.879,8.911
		c-4.88,0-8.903-3.999-8.903-8.911c0-4.888,4.023-8.887,8.903-8.887C423.405,180.466,427.389,184.465,427.389,189.353"/>
	<path fill-rule="evenodd" clip-rule="evenodd" fill="#FBCDA9" d="M427.3,189.353c0,4.84-3.927,8.798-8.79,8.798
		c-4.864,0-8.807-3.958-8.807-8.798c0-4.863,3.942-8.822,8.807-8.822C423.373,180.531,427.3,184.49,427.3,189.353"/>
	<path fill-rule="evenodd" clip-rule="evenodd" fill="#FBCDA9" d="M427.243,189.353c0,4.815-3.935,8.701-8.733,8.701
		c-4.815,0-8.71-3.886-8.71-8.701c0-4.831,3.895-8.709,8.71-8.709C423.309,180.644,427.243,184.522,427.243,189.353"/>
	<path fill-rule="evenodd" clip-rule="evenodd" fill="#FBCDA9" d="M427.138,189.353c0,4.783-3.878,8.62-8.628,8.62
		c-4.734,0-8.612-3.837-8.612-8.62c0-4.75,3.878-8.661,8.612-8.661C423.26,180.692,427.138,184.603,427.138,189.353"/>
	<path fill-rule="evenodd" clip-rule="evenodd" fill="#FBCDAB" d="M427.041,189.353c0,4.702-3.797,8.54-8.531,8.54
		c-4.702,0-8.523-3.838-8.523-8.54c0-4.71,3.821-8.531,8.523-8.531C423.244,180.822,427.041,184.643,427.041,189.353"/>
	<path fill-rule="evenodd" clip-rule="evenodd" fill="#FBCDAB" d="M426.944,189.353c0,4.646-3.789,8.442-8.435,8.442
		c-4.654,0-8.451-3.797-8.451-8.442c0-4.686,3.797-8.435,8.451-8.435C423.155,180.918,426.944,184.667,426.944,189.353"/>
	<path fill-rule="evenodd" clip-rule="evenodd" fill="#FBCFAC" d="M426.88,189.353c0,4.605-3.766,8.346-8.37,8.346
		c-4.622,0-8.354-3.74-8.354-8.346c0-4.613,3.732-8.346,8.354-8.346C423.114,181.007,426.88,184.74,426.88,189.353"/>
	<path fill-rule="evenodd" clip-rule="evenodd" fill="#FBCFAD" d="M426.767,189.353c0,4.54-3.717,8.225-8.257,8.225
		c-4.573,0-8.257-3.685-8.257-8.225c0-4.557,3.684-8.257,8.257-8.257C423.05,181.096,426.767,184.796,426.767,189.353"/>
	<path fill-rule="evenodd" clip-rule="evenodd" fill="#FBCFAD" d="M426.653,189.353c0,4.5-3.644,8.168-8.144,8.168
		c-4.492,0-8.177-3.668-8.177-8.168c0-4.532,3.685-8.192,8.177-8.192C423.01,181.161,426.653,184.821,426.653,189.353"/>
	<path fill-rule="evenodd" clip-rule="evenodd" fill="#FBCFAD" d="M426.589,189.353c0,4.468-3.636,8.087-8.079,8.087
		c-4.46,0-8.079-3.619-8.079-8.087c0-4.492,3.619-8.071,8.079-8.071C422.953,181.282,426.589,184.861,426.589,189.353"/>
	<path fill-rule="evenodd" clip-rule="evenodd" fill="#FBD1B0" d="M426.459,189.353c0,4.403-3.555,7.982-7.949,7.982
		c-4.42,0-7.999-3.579-7.999-7.982c0-4.419,3.579-7.998,7.999-7.998C422.904,181.355,426.459,184.934,426.459,189.353"/>
	<path fill-rule="evenodd" clip-rule="evenodd" fill="#FBD1B0" d="M426.387,189.353c0,4.362-3.515,7.894-7.877,7.894
		c-4.347,0-7.918-3.531-7.918-7.894c0-4.354,3.571-7.901,7.918-7.901C422.872,181.452,426.387,184.999,426.387,189.353"/>
	<path fill-rule="evenodd" clip-rule="evenodd" fill="#FBD1B0" d="M426.313,189.353c0,4.282-3.49,7.813-7.804,7.813
		c-4.339,0-7.805-3.53-7.805-7.813c0-4.314,3.466-7.796,7.805-7.796C422.823,181.557,426.313,185.039,426.313,189.353"/>
	<path fill-rule="evenodd" clip-rule="evenodd" fill="#FCD3B3" d="M426.225,189.353c0,4.226-3.474,7.716-7.715,7.716
		c-4.267,0-7.708-3.49-7.708-7.716c0-4.273,3.441-7.74,7.708-7.74C422.751,181.613,426.225,185.08,426.225,189.353"/>
	<path fill-rule="evenodd" clip-rule="evenodd" fill="#FCD3B3" d="M426.152,189.353c0,4.226-3.426,7.635-7.643,7.635
		c-4.218,0-7.595-3.409-7.595-7.635c0-4.217,3.377-7.627,7.595-7.627C422.727,181.726,426.152,185.136,426.152,189.353"/>
	<path fill-rule="evenodd" clip-rule="evenodd" fill="#FCD3B5" d="M426.007,189.353c0,4.129-3.361,7.514-7.497,7.514
		c-4.145,0-7.53-3.385-7.53-7.514c0-4.161,3.386-7.521,7.53-7.521C422.646,181.832,426.007,185.192,426.007,189.353"/>
	<path fill-rule="evenodd" clip-rule="evenodd" fill="#FCD3B5" d="M425.95,189.353c0,4.129-3.337,7.44-7.44,7.44
		c-4.104,0-7.441-3.312-7.441-7.44c0-4.12,3.337-7.44,7.441-7.44C422.613,181.913,425.95,185.233,425.95,189.353"/>
	<path fill-rule="evenodd" clip-rule="evenodd" fill="#FCD3B5" d="M425.846,189.353c0,4.072-3.289,7.352-7.336,7.352
		c-4.056,0-7.368-3.279-7.368-7.352c0-4.056,3.313-7.368,7.368-7.368C422.557,181.985,425.846,185.297,425.846,189.353"/>
	<path fill-rule="evenodd" clip-rule="evenodd" fill="#FCD5B7" d="M425.78,189.353c0,4.007-3.256,7.239-7.271,7.239
		c-4.023,0-7.255-3.232-7.255-7.239c0-4.023,3.231-7.247,7.255-7.247C422.524,182.106,425.78,185.33,425.78,189.353"/>
	<path fill-rule="evenodd" clip-rule="evenodd" fill="#FCD5B7" d="M425.684,189.353c0,3.951-3.231,7.183-7.174,7.183
		c-3.943,0-7.19-3.231-7.19-7.183c0-3.967,3.247-7.19,7.19-7.19C422.452,182.163,425.684,185.386,425.684,189.353"/>
	<path fill-rule="evenodd" clip-rule="evenodd" fill="#FCD6B9" d="M425.57,189.353c0,3.895-3.167,7.045-7.061,7.045
		c-3.911,0-7.077-3.15-7.077-7.045c0-3.902,3.166-7.069,7.077-7.069C422.403,182.284,425.57,185.451,425.57,189.353"/>
	<path fill-rule="evenodd" clip-rule="evenodd" fill="#FCD7BA" d="M425.49,189.353c0,3.87-3.135,6.988-6.98,6.988
		c-3.862,0-7.005-3.118-7.005-6.988c0-3.861,3.143-6.988,7.005-6.988C422.355,182.365,425.49,185.492,425.49,189.353"/>
	<path fill-rule="evenodd" clip-rule="evenodd" fill="#FCD7BA" d="M425.401,189.353c0,3.797-3.07,6.907-6.892,6.907
		c-3.846,0-6.899-3.11-6.899-6.907c0-3.789,3.054-6.899,6.899-6.899C422.331,182.454,425.401,185.564,425.401,189.353"/>
	<path fill-rule="evenodd" clip-rule="evenodd" fill="#FCD8BC" d="M425.313,189.353c0,3.732-3.055,6.786-6.803,6.786
		c-3.741,0-6.787-3.054-6.787-6.786c0-3.781,3.046-6.818,6.787-6.818C422.258,182.535,425.313,185.572,425.313,189.353"/>
	<path fill-rule="evenodd" clip-rule="evenodd" fill="#FCD8BC" d="M425.19,189.353c0,3.676-2.98,6.714-6.681,6.714
		c-3.717,0-6.689-3.038-6.689-6.714c0-3.708,2.973-6.722,6.689-6.722C422.21,182.631,425.19,185.645,425.19,189.353"/>
	<path fill-rule="evenodd" clip-rule="evenodd" fill="#FCDABF" d="M425.167,189.353c0,3.651-3.021,6.633-6.657,6.633
		c-3.668,0-6.642-2.981-6.642-6.633s2.974-6.633,6.642-6.633C422.146,182.72,425.167,185.702,425.167,189.353"/>
	<path fill-rule="evenodd" clip-rule="evenodd" fill="#FCDABF" d="M425.054,189.353c0,3.619-2.949,6.536-6.544,6.536
		c-3.62,0-6.528-2.917-6.528-6.536c0-3.644,2.908-6.561,6.528-6.561C422.104,182.792,425.054,185.709,425.054,189.353"/>
	<path fill-rule="evenodd" clip-rule="evenodd" fill="#FCDABF" d="M424.924,189.353c0,3.539-2.844,6.415-6.414,6.415
		c-3.563,0-6.432-2.876-6.432-6.415c0-3.587,2.868-6.447,6.432-6.447C422.08,182.906,424.924,185.766,424.924,189.353"/>
	<path fill-rule="evenodd" clip-rule="evenodd" fill="#FDDBBF" d="M424.852,189.353c0,3.515-2.819,6.351-6.342,6.351
		c-3.515,0-6.375-2.836-6.375-6.351s2.836-6.342,6.375-6.342C422.032,183.011,424.852,185.838,424.852,189.353"/>
	<path fill-rule="evenodd" clip-rule="evenodd" fill="#FDDCC1" d="M424.778,189.353c0,3.441-2.827,6.253-6.269,6.253
		c-3.458,0-6.278-2.812-6.278-6.253c0-3.45,2.82-6.245,6.278-6.245C421.951,183.108,424.746,185.903,424.778,189.353"/>
	<path fill-rule="evenodd" clip-rule="evenodd" fill="#FDDCC1" d="M424.69,189.353c0,3.401-2.788,6.196-6.181,6.196
		c-3.41,0-6.173-2.795-6.173-6.196c0-3.426,2.763-6.164,6.173-6.164C421.902,183.189,424.69,185.927,424.69,189.353"/>
	<path fill-rule="evenodd" clip-rule="evenodd" fill="#FDDCC3" d="M424.585,189.353c0,3.345-2.715,6.035-6.075,6.035
		c-3.361,0-6.101-2.69-6.101-6.035c0-3.369,2.739-6.067,6.101-6.067C421.87,183.286,424.585,185.984,424.585,189.353"/>
	<path fill-rule="evenodd" clip-rule="evenodd" fill="#FDDCC3" d="M424.488,189.353c0,3.32-2.666,5.979-5.979,5.979
		c-3.329,0-5.979-2.658-5.979-5.979c0-3.328,2.649-6.003,5.979-6.003C421.822,183.35,424.488,186.025,424.488,189.353"/>
	<path fill-rule="evenodd" clip-rule="evenodd" fill="#FDDEC4" d="M424.423,189.353c0,3.248-2.674,5.906-5.913,5.906
		c-3.265,0-5.882-2.658-5.882-5.906c0-3.288,2.617-5.906,5.882-5.906C421.749,183.447,424.423,186.065,424.423,189.353"/>
	<path fill-rule="evenodd" clip-rule="evenodd" fill="#FDDEC6" d="M424.343,189.353c0,3.199-2.634,5.801-5.833,5.801
		c-3.216,0-5.817-2.602-5.817-5.801c0-3.216,2.602-5.793,5.817-5.793C421.709,183.56,424.343,186.137,424.343,189.353"/>
	<path fill-rule="evenodd" clip-rule="evenodd" fill="#FDDEC6" d="M424.213,189.353c0,3.143-2.561,5.72-5.703,5.72
		c-3.159,0-5.721-2.577-5.721-5.72c0-3.159,2.562-5.736,5.721-5.736C421.652,183.617,424.213,186.194,424.213,189.353"/>
	<path fill-rule="evenodd" clip-rule="evenodd" fill="#FDE0C7" d="M424.133,189.353c0,3.086-2.537,5.591-5.623,5.591
		c-3.119,0-5.623-2.505-5.623-5.591c0-3.118,2.504-5.631,5.623-5.631C421.596,183.722,424.133,186.235,424.133,189.353"/>
	<path fill-rule="evenodd" clip-rule="evenodd" fill="#FDE0C8" d="M424.044,189.353c0,3.029-2.497,5.526-5.534,5.526
		c-3.063,0-5.526-2.497-5.526-5.526c0-3.07,2.464-5.551,5.526-5.551C421.547,183.802,424.044,186.283,424.044,189.353"/>
	<path fill-rule="evenodd" clip-rule="evenodd" fill="#FDE0C8" d="M423.963,189.353c0,2.989-2.464,5.445-5.453,5.445
		c-3.014,0-5.445-2.456-5.445-5.445c0-3.021,2.432-5.494,5.445-5.494C421.499,183.859,423.963,186.332,423.963,189.353"/>
	<path fill-rule="evenodd" clip-rule="evenodd" fill="#FDE0CA" d="M423.857,189.353c0,2.949-2.407,5.349-5.348,5.349
		c-2.974,0-5.373-2.399-5.373-5.349c0-2.94,2.399-5.356,5.373-5.356C421.45,183.997,423.857,186.413,423.857,189.353"/>
	<path fill-rule="evenodd" clip-rule="evenodd" fill="#FDE2CB" d="M423.785,189.353c0,2.885-2.367,5.268-5.275,5.268
		c-2.909,0-5.252-2.383-5.252-5.268c0-2.9,2.343-5.235,5.252-5.235C421.418,184.118,423.785,186.453,423.785,189.353"/>
	<path fill-rule="evenodd" clip-rule="evenodd" fill="#FDE2CB" d="M423.656,189.353c0,2.836-2.319,5.187-5.146,5.187
		c-2.86,0-5.171-2.351-5.171-5.187c0-2.844,2.311-5.146,5.171-5.146C421.337,184.207,423.656,186.509,423.656,189.353"/>
	<path fill-rule="evenodd" clip-rule="evenodd" fill="#FDE2CD" d="M423.583,189.353c0,2.795-2.271,5.09-5.073,5.09
		c-2.812,0-5.106-2.295-5.106-5.09c0-2.819,2.295-5.098,5.106-5.098C421.313,184.255,423.583,186.534,423.583,189.353"/>
	<path fill-rule="evenodd" clip-rule="evenodd" fill="#FDE2CD" d="M423.502,189.353c0,2.747-2.245,4.977-4.992,4.977
		c-2.779,0-4.993-2.229-4.993-4.977c0-2.723,2.214-5.009,4.993-5.009C421.257,184.344,423.502,186.63,423.502,189.353"/>
	<path fill-rule="evenodd" clip-rule="evenodd" fill="#FDE4D0" d="M423.405,189.353c0,2.715-2.189,4.88-4.896,4.88
		c-2.715,0-4.88-2.165-4.88-4.88c0-2.706,2.165-4.872,4.88-4.872C421.216,184.481,423.405,186.647,423.405,189.353"/>
	<path fill-rule="evenodd" clip-rule="evenodd" fill="#FDE4D0" d="M423.309,189.353c0,2.65-2.165,4.799-4.799,4.799
		c-2.65,0-4.815-2.148-4.815-4.799c0-2.666,2.165-4.807,4.815-4.807C421.144,184.546,423.309,186.687,423.309,189.353"/>
	<path fill-rule="evenodd" clip-rule="evenodd" fill="#FDE4D0" d="M423.244,189.353c0,2.594-2.117,4.734-4.734,4.734
		c-2.602,0-4.719-2.125-4.719-4.734c0-2.602,2.117-4.71,4.719-4.71C421.127,184.643,423.244,186.751,423.244,189.353"/>
	<path fill-rule="evenodd" clip-rule="evenodd" fill="#FDE6D2" d="M423.114,189.353c0,2.537-2.044,4.605-4.604,4.605
		c-2.569,0-4.654-2.068-4.654-4.605c0-2.569,2.085-4.646,4.654-4.646C421.07,184.708,423.114,186.784,423.114,189.353"/>
	<path fill-rule="evenodd" clip-rule="evenodd" fill="#FDE6D2" d="M423.034,189.353c0,2.496-2.021,4.524-4.524,4.524
		c-2.537,0-4.517-2.028-4.517-4.524c0-2.521,1.979-4.532,4.517-4.532C421.014,184.821,423.034,186.833,423.034,189.353"/>
	<path fill-rule="evenodd" clip-rule="evenodd" fill="#FDE6D4" d="M422.953,189.353c0,2.439-2.004,4.468-4.443,4.468
		c-2.456,0-4.46-2.028-4.46-4.468c0-2.464,2.004-4.468,4.46-4.468C420.949,184.885,422.953,186.889,422.953,189.353"/>
	<path fill-rule="evenodd" clip-rule="evenodd" fill="#FDE6D4" d="M422.872,189.353c0,2.416-1.972,4.362-4.362,4.362
		c-2.424,0-4.347-1.946-4.347-4.362c0-2.407,1.923-4.354,4.347-4.354C420.9,184.999,422.872,186.946,422.872,189.353"/>
	<path fill-rule="evenodd" clip-rule="evenodd" fill="#FDE6D4" d="M422.783,189.353c0,2.318-1.947,4.25-4.273,4.25
		c-2.359,0-4.282-1.932-4.282-4.25c0-2.343,1.923-4.273,4.282-4.273C420.836,185.08,422.783,187.01,422.783,189.353"/>
	<path fill-rule="evenodd" clip-rule="evenodd" fill="#FDE8D7" d="M422.679,189.353c0,2.303-1.858,4.152-4.169,4.152
		s-4.161-1.85-4.161-4.152c0-2.327,1.851-4.193,4.161-4.193S422.679,187.026,422.679,189.353"/>
	<path fill-rule="evenodd" clip-rule="evenodd" fill="#FDE8D7" d="M422.598,189.353c0,2.238-1.851,4.072-4.088,4.072
		c-2.263,0-4.097-1.834-4.097-4.072c0-2.254,1.834-4.08,4.097-4.08C420.747,185.273,422.598,187.099,422.598,189.353"/>
	<path fill-rule="evenodd" clip-rule="evenodd" fill="#FDE8D8" d="M422.501,189.353c0,2.206-1.794,4.007-3.991,4.007
		c-2.198,0-3.991-1.801-3.991-4.007c0-2.205,1.793-3.999,3.991-3.999C420.707,185.354,422.501,187.148,422.501,189.353"/>
	<path fill-rule="evenodd" clip-rule="evenodd" fill="#FEE9D9" d="M422.403,189.353c0,2.182-1.736,3.895-3.894,3.895
		c-2.149,0-3.895-1.713-3.895-3.895c0-2.133,1.745-3.902,3.895-3.902C420.667,185.451,422.403,187.22,422.403,189.353"/>
	<path fill-rule="evenodd" clip-rule="evenodd" fill="#FEE9D9" d="M422.331,189.353c0,2.084-1.713,3.797-3.821,3.797
		c-2.101,0-3.846-1.713-3.846-3.797c0-2.108,1.745-3.821,3.846-3.821C420.618,185.532,422.331,187.245,422.331,189.353"/>
	<path fill-rule="evenodd" clip-rule="evenodd" fill="#FEE9D9" d="M422.258,189.353c0,2.061-1.713,3.7-3.748,3.7
		c-2.036,0-3.733-1.64-3.733-3.7c0-2.036,1.697-3.708,3.733-3.708C420.545,185.645,422.258,187.317,422.258,189.353"/>
	<path fill-rule="evenodd" clip-rule="evenodd" fill="#FEEADB" d="M422.104,189.353c0,2.02-1.575,3.619-3.595,3.619
		c-2.004,0-3.62-1.6-3.62-3.619c0-2.012,1.616-3.644,3.62-3.644C420.529,185.709,422.104,187.341,422.104,189.353"/>
	<path fill-rule="evenodd" clip-rule="evenodd" fill="#FEEBDC" d="M422.048,189.353c0,1.947-1.583,3.515-3.538,3.515
		c-1.972,0-3.539-1.567-3.539-3.515c0-1.955,1.567-3.53,3.539-3.53C420.465,185.823,422.048,187.398,422.048,189.353"/>
	<path fill-rule="evenodd" clip-rule="evenodd" fill="#FEEBDC" d="M421.951,189.353c0,1.891-1.535,3.441-3.441,3.441
		c-1.907,0-3.458-1.551-3.458-3.441c0-1.898,1.551-3.426,3.458-3.426C420.416,185.927,421.919,187.455,421.951,189.353"/>
	<path fill-rule="evenodd" clip-rule="evenodd" fill="#FEECDE" d="M421.87,189.353c0,1.826-1.519,3.345-3.36,3.345
		c-1.843,0-3.361-1.519-3.361-3.345c0-1.834,1.519-3.369,3.361-3.369C420.352,185.984,421.87,187.519,421.87,189.353"/>
	<path fill-rule="evenodd" clip-rule="evenodd" fill="#FEEDDF" d="M421.773,189.353c0,1.77-1.454,3.264-3.264,3.264
		s-3.288-1.494-3.288-3.264c0-1.802,1.479-3.288,3.288-3.288S421.773,187.551,421.773,189.353"/>
	<path fill-rule="evenodd" clip-rule="evenodd" fill="#FEEDE0" d="M421.692,189.353c0,1.745-1.422,3.159-3.183,3.159
		c-1.745,0-3.184-1.414-3.184-3.159c0-1.737,1.438-3.159,3.184-3.159C420.271,186.194,421.692,187.616,421.692,189.353"/>
	<path fill-rule="evenodd" clip-rule="evenodd" fill="#FEEDE0" d="M421.596,189.353c0,1.688-1.39,3.086-3.086,3.086
		c-1.713,0-3.087-1.397-3.087-3.086c0-1.696,1.374-3.078,3.087-3.078C420.206,186.275,421.596,187.657,421.596,189.353"/>
	<path fill-rule="evenodd" clip-rule="evenodd" fill="#FEEDE0" d="M421.499,189.353c0,1.673-1.342,2.989-2.989,2.989
		c-1.624,0-2.989-1.316-2.989-2.989c0-1.656,1.365-2.981,2.989-2.981C420.157,186.372,421.499,187.697,421.499,189.353"/>
	<path fill-rule="evenodd" clip-rule="evenodd" fill="#FEEFE3" d="M421.418,189.353c0,1.592-1.309,2.885-2.908,2.885
		c-1.624,0-2.909-1.293-2.909-2.885c0-1.583,1.285-2.9,2.909-2.9C420.109,186.453,421.418,187.77,421.418,189.353"/>
	<path fill-rule="evenodd" clip-rule="evenodd" fill="#FEEFE3" d="M421.313,189.353c0,1.535-1.252,2.828-2.803,2.828
		c-1.544,0-2.812-1.293-2.812-2.828c0-1.583,1.268-2.819,2.812-2.819C420.061,186.534,421.313,187.77,421.313,189.353"/>
	<path fill-rule="evenodd" clip-rule="evenodd" fill="#FEF0E5" d="M421.216,189.353c0,1.495-1.204,2.715-2.706,2.715
		c-1.527,0-2.715-1.22-2.715-2.715c0-1.503,1.188-2.706,2.715-2.706C420.012,186.647,421.216,187.85,421.216,189.353"/>
	<path fill-rule="evenodd" clip-rule="evenodd" fill="#FEF1E6" d="M421.127,189.353c0,1.446-1.171,2.609-2.617,2.609
		c-1.454,0-2.634-1.163-2.634-2.609c0.023-1.438,1.18-2.642,2.634-2.642C419.956,186.711,421.127,187.915,421.127,189.353"/>
	<path fill-rule="evenodd" clip-rule="evenodd" fill="#FEF1E6" d="M421.046,189.353c0,1.373-1.099,2.537-2.536,2.537
		c-1.422,0-2.569-1.164-2.569-2.537c0-1.405,1.147-2.521,2.569-2.521C419.947,186.833,421.046,187.948,421.046,189.353"/>
	<path fill-rule="evenodd" clip-rule="evenodd" fill="#FEF1E7" d="M420.949,189.353c0,1.35-1.083,2.439-2.439,2.439
		c-1.35,0-2.456-1.09-2.456-2.439c0-1.365,1.106-2.432,2.456-2.432C419.866,186.921,420.949,187.988,420.949,189.353"/>
	<path fill-rule="evenodd" clip-rule="evenodd" fill="#FEF1E7" d="M420.868,189.353c0,1.276-1.058,2.343-2.358,2.343
		c-1.31,0-2.359-1.066-2.359-2.343c0-1.284,1.05-2.351,2.359-2.351C419.811,187.002,420.868,188.069,420.868,189.353"/>
	<path fill-rule="evenodd" clip-rule="evenodd" fill="#FEF2E9" d="M420.764,189.353c0,1.252-0.994,2.254-2.254,2.254
		c-1.269,0-2.278-1.002-2.278-2.254c0-1.244,1.01-2.254,2.278-2.254C419.77,187.099,420.764,188.109,420.764,189.353"/>
	<path fill-rule="evenodd" clip-rule="evenodd" fill="#FFF3EA" d="M420.69,189.353c0,1.212-0.978,2.182-2.181,2.182
		c-1.212,0-2.198-0.97-2.198-2.182c0-1.188,0.986-2.189,2.198-2.189C419.713,187.164,420.69,188.166,420.69,189.353"/>
	<path fill-rule="evenodd" clip-rule="evenodd" fill="#FFF3EA" d="M420.586,189.353c0,1.172-0.93,2.084-2.076,2.084
		c-1.164,0-2.077-0.912-2.077-2.084c0-1.147,0.913-2.093,2.077-2.093C419.656,187.26,420.586,188.206,420.586,189.353"/>
	<path fill-rule="evenodd" clip-rule="evenodd" fill="#FEF4EC" d="M420.489,189.353c0,1.099-0.881,1.987-1.979,1.987
		s-2.004-0.889-2.004-1.987c0-1.131,0.905-1.995,2.004-1.995S420.489,188.222,420.489,189.353"/>
	<path fill-rule="evenodd" clip-rule="evenodd" fill="#FFF5ED" d="M420.416,189.353c0,1.042-0.864,1.891-1.906,1.891
		c-1.051,0-1.907-0.849-1.907-1.891c0-1.05,0.856-1.898,1.907-1.898C419.552,187.455,420.416,188.303,420.416,189.353"/>
	<path fill-rule="evenodd" clip-rule="evenodd" fill="#FFF5EF" d="M420.319,189.353c0,0.994-0.809,1.81-1.81,1.81
		c-1.019,0-1.826-0.815-1.826-1.81s0.808-1.802,1.826-1.802C419.511,187.551,420.319,188.359,420.319,189.353"/>
	<path fill-rule="evenodd" clip-rule="evenodd" fill="#FFF5EF" d="M420.214,189.353c0,0.945-0.751,1.713-1.704,1.713
		c-0.954,0-1.729-0.768-1.729-1.713c0-0.97,0.775-1.713,1.729-1.713C419.463,187.64,420.214,188.383,420.214,189.353"/>
	<path fill-rule="evenodd" clip-rule="evenodd" fill="#FFF5EF" d="M420.125,189.353c0,0.905-0.727,1.648-1.615,1.648
		c-0.905,0-1.624-0.743-1.624-1.648c0-0.913,0.719-1.624,1.624-1.624C419.398,187.729,420.125,188.44,420.125,189.353"/>
	<path fill-rule="evenodd" clip-rule="evenodd" fill="#FFF7F1" d="M420.061,189.353c0,0.84-0.711,1.535-1.551,1.535
		c-0.824,0-1.527-0.695-1.527-1.535c0-0.872,0.703-1.535,1.527-1.535C419.35,187.818,420.061,188.481,420.061,189.353"/>
	<path fill-rule="evenodd" clip-rule="evenodd" fill="#FFF7F1" d="M419.956,189.353c0,0.8-0.639,1.446-1.446,1.446
		c-0.809,0-1.454-0.646-1.454-1.446c0-0.808,0.646-1.438,1.454-1.438C419.317,187.915,419.956,188.545,419.956,189.353"/>
	<path fill-rule="evenodd" clip-rule="evenodd" fill="#FFF8F3" d="M419.866,189.353c0,0.76-0.613,1.357-1.356,1.357
		s-1.374-0.598-1.374-1.357c0.024-0.751,0.631-1.365,1.374-1.365S419.866,188.602,419.866,189.353"/>
	<path fill-rule="evenodd" clip-rule="evenodd" fill="#FFF8F3" d="M419.778,189.353c0,0.703-0.558,1.261-1.269,1.261
		c-0.695,0-1.269-0.558-1.269-1.261c0-0.679,0.573-1.269,1.269-1.269C419.221,188.084,419.778,188.674,419.778,189.353"/>
	<path fill-rule="evenodd" clip-rule="evenodd" fill="#FFF9F4" d="M419.688,189.353c0,0.671-0.533,1.18-1.179,1.18
		c-0.639,0-1.172-0.509-1.172-1.18c0-0.654,0.533-1.163,1.172-1.163C419.155,188.19,419.688,188.699,419.688,189.353"/>
	<path fill-rule="evenodd" clip-rule="evenodd" fill="#FFF9F6" d="M419.608,189.353c0,0.63-0.501,1.099-1.099,1.099
		c-0.631,0-1.099-0.469-1.099-1.099s0.468-1.106,1.099-1.106C419.107,188.247,419.608,188.723,419.608,189.353"/>
	<path fill-rule="evenodd" clip-rule="evenodd" fill="#FFF9F6" d="M419.511,189.353c0,0.541-0.477,0.994-1.001,0.994
		c-0.558,0-1.019-0.453-1.019-0.994c0-0.533,0.461-0.994,1.019-0.994C419.034,188.359,419.511,188.82,419.511,189.353"/>
	<path fill-rule="evenodd" clip-rule="evenodd" fill="#FFFBF7" d="M419.414,189.353c0,0.525-0.38,0.905-0.904,0.905
		c-0.501,0-0.905-0.38-0.905-0.905c0-0.493,0.404-0.913,0.905-0.913C419.034,188.44,419.414,188.86,419.414,189.353"/>
	<path fill-rule="evenodd" clip-rule="evenodd" fill="#FFFBF8" d="M419.333,189.353c0,0.469-0.371,0.8-0.823,0.8
		c-0.444,0-0.809-0.331-0.809-0.8c0-0.452,0.364-0.808,0.809-0.808C418.962,188.545,419.333,188.901,419.333,189.353"/>
	<path fill-rule="evenodd" clip-rule="evenodd" fill="#FFFBF8" d="M419.253,189.353c0,0.388-0.34,0.728-0.743,0.728
		c-0.388,0-0.735-0.34-0.735-0.728c0-0.396,0.348-0.751,0.735-0.751C418.913,188.602,419.253,188.958,419.253,189.353"/>
	<path fill-rule="evenodd" clip-rule="evenodd" fill="#FFFCFA" d="M419.155,189.353c0,0.315-0.307,0.646-0.646,0.646
		c-0.355,0-0.639-0.331-0.639-0.646c0-0.355,0.283-0.654,0.639-0.654C418.849,188.699,419.155,188.998,419.155,189.353"/>
	<path fill-rule="evenodd" clip-rule="evenodd" fill="#FFFDFB" d="M419.034,189.353c0,0.274-0.234,0.541-0.524,0.541
		c-0.291,0-0.558-0.267-0.558-0.541c0-0.283,0.267-0.533,0.558-0.533C418.8,188.82,419.034,189.07,419.034,189.353"/>
	<path fill-rule="evenodd" clip-rule="evenodd" fill="#FFFDFB" d="M418.962,189.353c0,0.267-0.194,0.469-0.452,0.469
		c-0.259,0-0.444-0.202-0.444-0.469c0-0.227,0.186-0.452,0.444-0.452C418.768,188.901,418.962,189.126,418.962,189.353"/>
	<path fill-rule="evenodd" clip-rule="evenodd" fill="#FFFDFD" d="M418.856,189.353c0,0.194-0.153,0.388-0.347,0.388
		c-0.194,0-0.372-0.193-0.372-0.388c0-0.202,0.178-0.355,0.372-0.355C418.703,188.998,418.856,189.151,418.856,189.353"/>
	<path fill-rule="evenodd" clip-rule="evenodd" fill="#FFFFFD" d="M418.776,189.353c0,0.138-0.138,0.267-0.267,0.267
		c-0.146,0-0.259-0.129-0.259-0.267c0-0.146,0.113-0.259,0.259-0.259C418.639,189.094,418.776,189.208,418.776,189.353"/>
	<path fill-rule="evenodd" clip-rule="evenodd" fill="#FFFFFF" d="M418.679,189.353c0,0.089-0.057,0.17-0.169,0.17
		c-0.098,0-0.194-0.081-0.194-0.17c0-0.105,0.097-0.202,0.194-0.202C418.622,189.151,418.679,189.248,418.679,189.353"/>
	<path fill-rule="evenodd" clip-rule="evenodd" fill="#FFFFFF" d="M418.622,189.353c0,0.032-0.064,0.089-0.112,0.089
		c-0.049,0-0.098-0.057-0.098-0.089c0-0.049,0.049-0.105,0.098-0.105C418.558,189.248,418.622,189.304,418.622,189.353"/>
	<rect x="122.786" y="536.791" fill-rule="evenodd" clip-rule="evenodd" fill="#E6007E" width="324.227" height="1.875"/>
	<rect x="122.786" y="536.791" fill="#F39200" stroke="#F3912D" stroke-width="0.0288" width="324.227" height="1.875"/>
</g>
</svg>
